<svg width="1192" height="243" viewBox="0 0 1192 243" fill="none" xmlns="http://www.w3.org/2000/svg">
<rect width="1192" height="243" fill="#E5E5E5"/>
<rect width="1192" height="243" fill="white"/>
<rect x="19" y="163" width="141" height="59" fill="#E6D09A"/>
<path d="M72.84 201H60.96V198.72H62.76V187.68H60.96V185.4H72.672L73.152 189.912L70.872 190.104L70.392 187.68H65.424V192H72.288V194.28H65.424V198.72H70.56L71.04 196.296L73.32 196.488L72.84 201ZM88.2677 199.512C87.7077 200.04 86.9077 200.464 85.8677 200.784C84.8437 201.088 83.7797 201.24 82.6757 201.24C80.4197 201.24 78.5557 200.512 77.0837 199.056C75.6277 197.584 74.8997 195.696 74.8997 193.392C74.8997 192.096 75.1717 190.816 75.7157 189.552C76.2597 188.288 77.1077 187.24 78.2597 186.408C79.4117 185.576 80.8837 185.16 82.6757 185.16C83.9877 185.16 85.1077 185.344 86.0357 185.712C86.9637 186.08 87.6997 186.512 88.2437 187.008L88.6517 190.392L86.4677 190.608L86.0837 188.448C85.1237 187.824 83.9717 187.512 82.6277 187.512C81.1557 187.512 79.9717 188.024 79.0757 189.048C78.1957 190.072 77.7557 191.472 77.7557 193.248C77.7557 195.104 78.2277 196.512 79.1717 197.472C80.1157 198.416 81.3557 198.888 82.8917 198.888C84.1717 198.888 85.2197 198.664 86.0357 198.216L86.4197 195.888L88.6037 196.104L88.2677 199.512ZM101.936 196.416C101.936 197.968 101.392 199.16 100.304 199.992C99.2324 200.824 97.8084 201.24 96.0324 201.24C94.9764 201.24 93.9524 201.112 92.9604 200.856C91.9844 200.6 91.2084 200.232 90.6324 199.752L91.0644 196.176L93.2004 196.392L93.1524 198.312C93.6804 198.584 94.1604 198.76 94.5924 198.84C95.0404 198.904 95.4564 198.936 95.8404 198.936C96.7684 198.936 97.5364 198.792 98.1444 198.504C98.7684 198.2 99.0804 197.6 99.0804 196.704C99.0804 195.728 98.7284 195.08 98.0244 194.76C97.3204 194.424 96.5124 194.168 95.6004 193.992C94.8644 193.848 94.1204 193.656 93.3684 193.416C92.6164 193.176 91.9924 192.776 91.4964 192.216C91.0004 191.656 90.7524 190.832 90.7524 189.744C90.7524 188.112 91.3044 186.944 92.4084 186.24C93.5284 185.52 94.7764 185.16 96.1524 185.16C97.1124 185.16 98.0404 185.304 98.9364 185.592C99.8484 185.88 100.56 186.256 101.072 186.72L101.216 190.008L99.0804 190.2L98.8644 188.184C98.4164 187.928 97.9684 187.752 97.5204 187.656C97.0724 187.56 96.6404 187.512 96.2244 187.512C95.4724 187.512 94.8484 187.664 94.3524 187.968C93.8564 188.272 93.6084 188.76 93.6084 189.432C93.6084 190.216 93.9124 190.752 94.5204 191.04C95.1444 191.312 95.8404 191.536 96.6084 191.712C97.2644 191.856 98.0084 192.048 98.8404 192.288C99.6724 192.528 100.392 192.96 101 193.584C101.624 194.192 101.936 195.136 101.936 196.416ZM117.821 187.68H116.405L111.749 194.952V198.72H114.365V201H106.589V198.72H109.085V194.928L104.261 187.68H102.821V185.4H108.989V187.68H107.357L110.477 192.576H110.621L113.669 187.68H111.941V185.4H117.821V187.68Z" fill="black"/>
<rect x="178" y="163" width="141" height="59" fill="#C4C4C4"/>
<path d="M235.96 193.176C235.96 195.464 235.256 197.344 233.848 198.816C232.456 200.272 230.528 201 228.064 201H221.008V199.488H222.976V186.912H221.008V185.4H227.992C230.536 185.4 232.496 186.136 233.872 187.608C235.264 189.064 235.96 190.92 235.96 193.176ZM234.088 193.2C234.088 191.312 233.56 189.792 232.504 188.64C231.464 187.488 229.952 186.912 227.968 186.912H224.728V199.488H227.968C229.952 199.488 231.464 198.928 232.504 197.808C233.56 196.672 234.088 195.136 234.088 193.2ZM253.482 193.2C253.482 194.672 253.154 196.016 252.498 197.232C251.842 198.448 250.922 199.424 249.738 200.16C248.554 200.88 247.178 201.24 245.61 201.24C243.258 201.24 241.378 200.456 239.97 198.888C238.562 197.304 237.858 195.408 237.858 193.2C237.858 190.96 238.578 189.064 240.018 187.512C241.474 185.944 243.354 185.16 245.658 185.16C247.994 185.16 249.882 185.944 251.322 187.512C252.762 189.08 253.482 190.976 253.482 193.2ZM251.586 193.224C251.586 191.352 251.05 189.808 249.978 188.592C248.906 187.36 247.466 186.744 245.658 186.744C243.802 186.744 242.354 187.368 241.314 188.616C240.274 189.864 239.754 191.384 239.754 193.176C239.754 194.936 240.274 196.456 241.314 197.736C242.354 199.016 243.818 199.656 245.706 199.656C247.546 199.656 248.986 199.04 250.026 197.808C251.066 196.56 251.586 195.032 251.586 193.224ZM274.31 186.936H272.27V199.464H274.214V201H268.67V199.464H270.494V189.528H270.398L265.166 200.208H264.23L258.878 189.456H258.782V199.464H260.654V201H255.134V199.464H257.102V186.936H255.062V185.4H258.638L264.71 197.616H264.806L270.71 185.4H274.31V186.936Z" fill="black"/>
<rect x="178" y="98" width="141" height="59" fill="#E6D09A"/>
<path d="M231.84 136H219.96V133.72H221.76V122.68H219.96V120.4H231.672L232.152 124.912L229.872 125.104L229.392 122.68H224.424V127H231.288V129.28H224.424V133.72H229.56L230.04 131.296L232.32 131.488L231.84 136ZM247.268 134.512C246.708 135.04 245.908 135.464 244.868 135.784C243.844 136.088 242.78 136.24 241.676 136.24C239.42 136.24 237.556 135.512 236.084 134.056C234.628 132.584 233.9 130.696 233.9 128.392C233.9 127.096 234.172 125.816 234.716 124.552C235.26 123.288 236.108 122.24 237.26 121.408C238.412 120.576 239.884 120.16 241.676 120.16C242.988 120.16 244.108 120.344 245.036 120.712C245.964 121.08 246.7 121.512 247.244 122.008L247.652 125.392L245.468 125.608L245.084 123.448C244.124 122.824 242.972 122.512 241.628 122.512C240.156 122.512 238.972 123.024 238.076 124.048C237.196 125.072 236.756 126.472 236.756 128.248C236.756 130.104 237.228 131.512 238.172 132.472C239.116 133.416 240.356 133.888 241.892 133.888C243.172 133.888 244.22 133.664 245.036 133.216L245.42 130.888L247.604 131.104L247.268 134.512ZM260.936 131.416C260.936 132.968 260.392 134.16 259.304 134.992C258.232 135.824 256.808 136.24 255.032 136.24C253.976 136.24 252.952 136.112 251.96 135.856C250.984 135.6 250.208 135.232 249.632 134.752L250.064 131.176L252.2 131.392L252.152 133.312C252.68 133.584 253.16 133.76 253.592 133.84C254.04 133.904 254.456 133.936 254.84 133.936C255.768 133.936 256.536 133.792 257.144 133.504C257.768 133.2 258.08 132.6 258.08 131.704C258.08 130.728 257.728 130.08 257.024 129.76C256.32 129.424 255.512 129.168 254.6 128.992C253.864 128.848 253.12 128.656 252.368 128.416C251.616 128.176 250.992 127.776 250.496 127.216C250 126.656 249.752 125.832 249.752 124.744C249.752 123.112 250.304 121.944 251.408 121.24C252.528 120.52 253.776 120.16 255.152 120.16C256.112 120.16 257.04 120.304 257.936 120.592C258.848 120.88 259.56 121.256 260.072 121.72L260.216 125.008L258.08 125.2L257.864 123.184C257.416 122.928 256.968 122.752 256.52 122.656C256.072 122.56 255.64 122.512 255.224 122.512C254.472 122.512 253.848 122.664 253.352 122.968C252.856 123.272 252.608 123.76 252.608 124.432C252.608 125.216 252.912 125.752 253.52 126.04C254.144 126.312 254.84 126.536 255.608 126.712C256.264 126.856 257.008 127.048 257.84 127.288C258.672 127.528 259.392 127.96 260 128.584C260.624 129.192 260.936 130.136 260.936 131.416ZM276.821 122.68H275.405L270.749 129.952V133.72H273.365V136H265.589V133.72H268.085V129.928L263.261 122.68H261.821V120.4H267.989V122.68H266.357L269.477 127.576H269.621L272.669 122.68H270.941V120.4H276.821V122.68Z" fill="black"/>
<rect x="337" y="163" width="141" height="59" fill="#C4C4C4"/>
<path d="M383.8 199.8C382.552 200.76 380.816 201.24 378.592 201.24C376.32 201.24 374.48 200.488 373.072 198.984C371.664 197.464 370.96 195.568 370.96 193.296C370.96 191.856 371.264 190.52 371.872 189.288C372.48 188.04 373.336 187.04 374.44 186.288C375.544 185.536 376.856 185.16 378.376 185.16C379.672 185.16 380.752 185.328 381.616 185.664C382.496 186 383.256 186.44 383.896 186.984L384.328 189.984L382.816 190.128L382.384 187.848C381.872 187.512 381.32 187.248 380.728 187.056C380.136 186.848 379.4 186.744 378.52 186.744C376.808 186.744 375.424 187.352 374.368 188.568C373.328 189.784 372.808 191.336 372.808 193.224C372.808 195.16 373.344 196.72 374.416 197.904C375.504 199.072 376.976 199.656 378.832 199.656C380.192 199.656 381.336 199.424 382.264 198.96L382.72 196.656L384.208 196.8L383.8 199.8ZM387.46 191.136C388.02 190.768 388.612 190.504 389.236 190.344C389.86 190.184 390.524 190.104 391.228 190.104C393.772 190.104 395.044 191.296 395.044 193.68V198.768C395.044 199.536 395.348 199.92 395.956 199.92C396.228 199.92 396.468 199.872 396.676 199.776L396.7 200.88C396.268 201.12 395.804 201.24 395.308 201.24C394.044 201.24 393.396 200.52 393.364 199.08V199.032C393.028 199.608 392.548 200.12 391.924 200.568C391.316 201.016 390.58 201.24 389.716 201.24C389.012 201.24 388.292 201.024 387.556 200.592C386.836 200.16 386.476 199.376 386.476 198.24C386.476 196.896 387.004 196.016 388.06 195.6C389.132 195.168 390.268 194.952 391.468 194.952C391.788 194.952 392.108 194.96 392.428 194.976C392.764 194.992 393.076 195.016 393.364 195.048V194.088C393.364 193.32 393.196 192.696 392.86 192.216C392.54 191.736 391.9 191.496 390.94 191.496C390.156 191.496 389.468 191.64 388.876 191.928L388.468 193.776L387.076 193.608L387.46 191.136ZM393.364 196.992V196.176C393.06 196.16 392.74 196.136 392.404 196.104C392.068 196.072 391.724 196.056 391.372 196.056C390.572 196.056 389.844 196.184 389.188 196.44C388.548 196.68 388.228 197.216 388.228 198.048C388.228 198.736 388.444 199.208 388.876 199.464C389.308 199.72 389.756 199.848 390.22 199.848C390.956 199.848 391.644 199.592 392.284 199.08C392.94 198.568 393.3 197.872 393.364 196.992ZM410.653 201H405.253V199.632H407.101V194.664C407.101 193.512 406.869 192.704 406.405 192.24C405.941 191.76 405.349 191.52 404.629 191.52C403.669 191.52 402.893 191.84 402.301 192.48C401.725 193.104 401.421 193.824 401.389 194.64V199.632H403.261V201H397.837V199.632H399.709V191.688H397.789V190.32H401.389V192.216C402.157 190.808 403.405 190.104 405.133 190.104C406.173 190.104 407.045 190.424 407.749 191.064C408.453 191.704 408.805 192.736 408.805 194.16V199.632H410.653V201ZM422.312 191.688H421.017L417.105 201H415.809L411.729 191.688H410.481V190.32H415.401V191.688H413.553L416.529 198.72H416.673L419.337 191.688H417.633V190.32H422.312V191.688ZM424.467 191.136C425.027 190.768 425.619 190.504 426.243 190.344C426.867 190.184 427.531 190.104 428.235 190.104C430.779 190.104 432.051 191.296 432.051 193.68V198.768C432.051 199.536 432.355 199.92 432.963 199.92C433.235 199.92 433.475 199.872 433.683 199.776L433.707 200.88C433.275 201.12 432.811 201.24 432.315 201.24C431.051 201.24 430.403 200.52 430.371 199.08V199.032C430.035 199.608 429.555 200.12 428.931 200.568C428.323 201.016 427.587 201.24 426.723 201.24C426.019 201.24 425.299 201.024 424.563 200.592C423.843 200.16 423.483 199.376 423.483 198.24C423.483 196.896 424.011 196.016 425.067 195.6C426.139 195.168 427.275 194.952 428.475 194.952C428.795 194.952 429.115 194.96 429.435 194.976C429.771 194.992 430.083 195.016 430.371 195.048V194.088C430.371 193.32 430.203 192.696 429.867 192.216C429.547 191.736 428.907 191.496 427.947 191.496C427.163 191.496 426.475 191.64 425.883 191.928L425.475 193.776L424.083 193.608L424.467 191.136ZM430.371 196.992V196.176C430.067 196.16 429.747 196.136 429.411 196.104C429.075 196.072 428.731 196.056 428.379 196.056C427.579 196.056 426.851 196.184 426.195 196.44C425.555 196.68 425.235 197.216 425.235 198.048C425.235 198.736 425.451 199.208 425.883 199.464C426.315 199.72 426.763 199.848 427.227 199.848C427.963 199.848 428.651 199.592 429.291 199.08C429.947 198.568 430.307 197.872 430.371 196.992ZM443.701 197.904C443.701 198.944 443.261 199.76 442.381 200.352C441.517 200.944 440.445 201.24 439.165 201.24C438.413 201.24 437.661 201.144 436.909 200.952C436.173 200.744 435.573 200.488 435.109 200.184L435.445 197.76L436.789 197.904L436.717 199.32C437.453 199.672 438.245 199.848 439.093 199.848C439.845 199.848 440.509 199.704 441.085 199.416C441.677 199.112 441.973 198.656 441.973 198.048C441.973 197.456 441.749 197.04 441.301 196.8C440.853 196.56 440.293 196.384 439.621 196.272C438.965 196.16 438.301 196.024 437.629 195.864C436.957 195.704 436.397 195.432 435.949 195.048C435.501 194.648 435.277 194.032 435.277 193.2C435.277 192.064 435.693 191.264 436.525 190.8C437.357 190.336 438.261 190.104 439.237 190.104C439.973 190.104 440.661 190.2 441.301 190.392C441.957 190.584 442.509 190.816 442.957 191.088L443.221 193.584L441.829 193.752L441.565 192.024C440.893 191.672 440.165 191.496 439.381 191.496C438.709 191.496 438.157 191.624 437.725 191.88C437.293 192.136 437.077 192.536 437.077 193.08C437.077 193.64 437.301 194.04 437.749 194.28C438.197 194.504 438.749 194.672 439.405 194.784C440.061 194.88 440.717 195.008 441.373 195.168C442.029 195.328 442.581 195.616 443.029 196.032C443.477 196.432 443.701 197.056 443.701 197.904Z" fill="black"/>
<rect x="337" y="98" width="141" height="59" fill="#E6D09A"/>
<path d="M390.84 136H378.96V133.72H380.76V122.68H378.96V120.4H390.672L391.152 124.912L388.872 125.104L388.392 122.68H383.424V127H390.288V129.28H383.424V133.72H388.56L389.04 131.296L391.32 131.488L390.84 136ZM406.268 134.512C405.708 135.04 404.908 135.464 403.868 135.784C402.844 136.088 401.78 136.24 400.676 136.24C398.42 136.24 396.556 135.512 395.084 134.056C393.628 132.584 392.9 130.696 392.9 128.392C392.9 127.096 393.172 125.816 393.716 124.552C394.26 123.288 395.108 122.24 396.26 121.408C397.412 120.576 398.884 120.16 400.676 120.16C401.988 120.16 403.108 120.344 404.036 120.712C404.964 121.08 405.7 121.512 406.244 122.008L406.652 125.392L404.468 125.608L404.084 123.448C403.124 122.824 401.972 122.512 400.628 122.512C399.156 122.512 397.972 123.024 397.076 124.048C396.196 125.072 395.756 126.472 395.756 128.248C395.756 130.104 396.228 131.512 397.172 132.472C398.116 133.416 399.356 133.888 400.892 133.888C402.172 133.888 403.22 133.664 404.036 133.216L404.42 130.888L406.604 131.104L406.268 134.512ZM419.936 131.416C419.936 132.968 419.392 134.16 418.304 134.992C417.232 135.824 415.808 136.24 414.032 136.24C412.976 136.24 411.952 136.112 410.96 135.856C409.984 135.6 409.208 135.232 408.632 134.752L409.064 131.176L411.2 131.392L411.152 133.312C411.68 133.584 412.16 133.76 412.592 133.84C413.04 133.904 413.456 133.936 413.84 133.936C414.768 133.936 415.536 133.792 416.144 133.504C416.768 133.2 417.08 132.6 417.08 131.704C417.08 130.728 416.728 130.08 416.024 129.76C415.32 129.424 414.512 129.168 413.6 128.992C412.864 128.848 412.12 128.656 411.368 128.416C410.616 128.176 409.992 127.776 409.496 127.216C409 126.656 408.752 125.832 408.752 124.744C408.752 123.112 409.304 121.944 410.408 121.24C411.528 120.52 412.776 120.16 414.152 120.16C415.112 120.16 416.04 120.304 416.936 120.592C417.848 120.88 418.56 121.256 419.072 121.72L419.216 125.008L417.08 125.2L416.864 123.184C416.416 122.928 415.968 122.752 415.52 122.656C415.072 122.56 414.64 122.512 414.224 122.512C413.472 122.512 412.848 122.664 412.352 122.968C411.856 123.272 411.608 123.76 411.608 124.432C411.608 125.216 411.912 125.752 412.52 126.04C413.144 126.312 413.84 126.536 414.608 126.712C415.264 126.856 416.008 127.048 416.84 127.288C417.672 127.528 418.392 127.96 419 128.584C419.624 129.192 419.936 130.136 419.936 131.416ZM435.821 122.68H434.405L429.749 129.952V133.72H432.365V136H424.589V133.72H427.085V129.928L422.261 122.68H420.821V120.4H426.989V122.68H425.357L428.477 127.576H428.621L431.669 122.68H429.941V120.4H435.821V122.68Z" fill="black"/>
<rect x="496" y="163" width="141" height="59" fill="#C4C4C4"/>
<path d="M535.296 186.936H533.976L529.8 201H528.384L524.28 188.52H524.184L520.2 201H518.784L514.32 186.936H513V185.4H518.4V186.936H516.192L519.48 198.144H519.576L523.176 186.936H521.616V185.4H526.992V186.936H525.432L529.08 198.216H529.176L532.2 186.936H529.944V185.4H535.296V186.936ZM544.745 197.928C544.601 198.84 544.145 199.624 543.377 200.28C542.609 200.92 541.569 201.24 540.257 201.24C538.753 201.24 537.537 200.768 536.609 199.824C535.681 198.88 535.217 197.544 535.217 195.816C535.217 194.152 535.657 192.784 536.537 191.712C537.417 190.64 538.609 190.104 540.113 190.104C541.585 190.104 542.705 190.568 543.473 191.496C544.241 192.424 544.633 193.52 544.649 194.784C544.649 195.2 544.601 195.624 544.505 196.056H536.993C537.089 198.552 538.217 199.8 540.377 199.8C541.225 199.8 541.889 199.6 542.369 199.2C542.849 198.8 543.169 198.272 543.329 197.616L544.745 197.928ZM542.873 194.808C542.953 194.008 542.761 193.256 542.297 192.552C541.849 191.848 541.105 191.496 540.065 191.496C539.073 191.496 538.345 191.824 537.881 192.48C537.417 193.136 537.129 193.912 537.017 194.808H542.873ZM557.482 195.384C557.482 196.328 557.322 197.248 557.002 198.144C556.682 199.04 556.17 199.784 555.466 200.376C554.762 200.952 553.85 201.24 552.73 201.24C550.938 201.24 549.69 200.568 548.986 199.224L548.746 201H547.066C547.13 200.536 547.202 200.032 547.282 199.488C547.362 198.944 547.402 198.408 547.402 197.88V185.856H545.554V184.488H549.082V192.528C549.402 191.872 549.858 191.304 550.45 190.824C551.058 190.344 551.874 190.104 552.898 190.104C554.226 190.104 555.322 190.56 556.186 191.472C557.05 192.384 557.482 193.688 557.482 195.384ZM555.706 195.552C555.706 194.224 555.394 193.224 554.77 192.552C554.146 191.88 553.386 191.544 552.49 191.544C551.466 191.544 550.65 191.92 550.042 192.672C549.434 193.424 549.114 194.192 549.082 194.976V196.584C549.082 197.48 549.394 198.24 550.018 198.864C550.658 199.488 551.442 199.8 552.37 199.8C553.538 199.8 554.386 199.368 554.914 198.504C555.442 197.64 555.706 196.656 555.706 195.552ZM574.334 194.52H573.11V201H571.766L571.55 198.84C571.086 199.528 570.422 200.104 569.558 200.568C568.71 201.016 567.71 201.24 566.558 201.24C564.414 201.24 562.678 200.472 561.35 198.936C560.022 197.4 559.358 195.512 559.358 193.272C559.358 191.768 559.678 190.408 560.318 189.192C560.974 187.96 561.87 186.984 563.006 186.264C564.158 185.528 565.478 185.16 566.966 185.16C568.214 185.16 569.302 185.336 570.23 185.688C571.174 186.024 571.942 186.456 572.534 186.984L572.966 189.912L571.478 190.08L570.998 187.872C570.566 187.584 570.038 187.328 569.414 187.104C568.806 186.864 568.022 186.744 567.062 186.744C565.318 186.744 563.91 187.344 562.838 188.544C561.766 189.744 561.23 191.296 561.23 193.2C561.23 195.136 561.742 196.696 562.766 197.88C563.79 199.064 565.158 199.656 566.87 199.656C568.294 199.656 569.398 199.272 570.182 198.504C570.966 197.72 571.358 196.856 571.358 195.912V194.52H567.638V192.96H574.334V194.52ZM587.256 201H576V199.464H577.968V186.936H576V185.4H582.336V186.936H579.72V199.464H585.696L586.176 195.888L587.736 196.008L587.256 201ZM595.654 184.488L590.494 201H588.838L593.998 184.488H595.654ZM611.203 201H605.755V199.464H607.675L603.691 194.136L599.875 199.464H601.723V201H596.347V199.464H597.955L602.803 192.936L598.171 186.936H596.611V185.4H601.939V186.936H600.187L603.811 191.736L607.267 186.936H605.683V185.4H610.963V186.936H609.235L604.699 192.912L609.715 199.464H611.203V201ZM625.935 201H622.815L619.455 194.472H616.119V199.464H618.207V201H612.375V199.464H614.343V186.936H612.375V185.4H619.119C621.055 185.4 622.439 185.824 623.271 186.672C624.103 187.504 624.519 188.552 624.519 189.816C624.519 190.824 624.239 191.728 623.679 192.528C623.119 193.312 622.287 193.848 621.183 194.136L623.967 199.464H625.935V201ZM622.671 189.888C622.671 188.864 622.375 188.12 621.783 187.656C621.191 187.176 620.231 186.936 618.903 186.936H616.119V193.008H618.951C620.279 193.008 621.231 192.736 621.807 192.192C622.383 191.632 622.671 190.864 622.671 189.888Z" fill="black"/>
<rect x="496" y="98" width="141" height="59" fill="#E6D09A"/>
<path d="M549.84 136H537.96V133.72H539.76V122.68H537.96V120.4H549.672L550.152 124.912L547.872 125.104L547.392 122.68H542.424V127H549.288V129.28H542.424V133.72H547.56L548.04 131.296L550.32 131.488L549.84 136ZM565.268 134.512C564.708 135.04 563.908 135.464 562.868 135.784C561.844 136.088 560.78 136.24 559.676 136.24C557.42 136.24 555.556 135.512 554.084 134.056C552.628 132.584 551.9 130.696 551.9 128.392C551.9 127.096 552.172 125.816 552.716 124.552C553.26 123.288 554.108 122.24 555.26 121.408C556.412 120.576 557.884 120.16 559.676 120.16C560.988 120.16 562.108 120.344 563.036 120.712C563.964 121.08 564.7 121.512 565.244 122.008L565.652 125.392L563.468 125.608L563.084 123.448C562.124 122.824 560.972 122.512 559.628 122.512C558.156 122.512 556.972 123.024 556.076 124.048C555.196 125.072 554.756 126.472 554.756 128.248C554.756 130.104 555.228 131.512 556.172 132.472C557.116 133.416 558.356 133.888 559.892 133.888C561.172 133.888 562.22 133.664 563.036 133.216L563.42 130.888L565.604 131.104L565.268 134.512ZM578.936 131.416C578.936 132.968 578.392 134.16 577.304 134.992C576.232 135.824 574.808 136.24 573.032 136.24C571.976 136.24 570.952 136.112 569.96 135.856C568.984 135.6 568.208 135.232 567.632 134.752L568.064 131.176L570.2 131.392L570.152 133.312C570.68 133.584 571.16 133.76 571.592 133.84C572.04 133.904 572.456 133.936 572.84 133.936C573.768 133.936 574.536 133.792 575.144 133.504C575.768 133.2 576.08 132.6 576.08 131.704C576.08 130.728 575.728 130.08 575.024 129.76C574.32 129.424 573.512 129.168 572.6 128.992C571.864 128.848 571.12 128.656 570.368 128.416C569.616 128.176 568.992 127.776 568.496 127.216C568 126.656 567.752 125.832 567.752 124.744C567.752 123.112 568.304 121.944 569.408 121.24C570.528 120.52 571.776 120.16 573.152 120.16C574.112 120.16 575.04 120.304 575.936 120.592C576.848 120.88 577.56 121.256 578.072 121.72L578.216 125.008L576.08 125.2L575.864 123.184C575.416 122.928 574.968 122.752 574.52 122.656C574.072 122.56 573.64 122.512 573.224 122.512C572.472 122.512 571.848 122.664 571.352 122.968C570.856 123.272 570.608 123.76 570.608 124.432C570.608 125.216 570.912 125.752 571.52 126.04C572.144 126.312 572.84 126.536 573.608 126.712C574.264 126.856 575.008 127.048 575.84 127.288C576.672 127.528 577.392 127.96 578 128.584C578.624 129.192 578.936 130.136 578.936 131.416ZM594.821 122.68H593.405L588.749 129.952V133.72H591.365V136H583.589V133.72H586.085V129.928L581.261 122.68H579.821V120.4H585.989V122.68H584.357L587.477 127.576H587.621L590.669 122.68H588.941V120.4H594.821V122.68Z" fill="black"/>
<rect x="702" y="163" width="141" height="59" fill="#C4C4C4"/>
<path d="M737.296 186.936H735.976L731.8 201H730.384L726.28 188.52H726.184L722.2 201H720.784L716.32 186.936H715V185.4H720.4V186.936H718.192L721.48 198.144H721.576L725.176 186.936H723.616V185.4H728.992V186.936H727.432L731.08 198.216H731.176L734.2 186.936H731.944V185.4H737.296V186.936ZM746.745 197.928C746.601 198.84 746.145 199.624 745.377 200.28C744.609 200.92 743.569 201.24 742.257 201.24C740.753 201.24 739.537 200.768 738.609 199.824C737.681 198.88 737.217 197.544 737.217 195.816C737.217 194.152 737.657 192.784 738.537 191.712C739.417 190.64 740.609 190.104 742.113 190.104C743.585 190.104 744.705 190.568 745.473 191.496C746.241 192.424 746.633 193.52 746.649 194.784C746.649 195.2 746.601 195.624 746.505 196.056H738.993C739.089 198.552 740.217 199.8 742.377 199.8C743.225 199.8 743.889 199.6 744.369 199.2C744.849 198.8 745.169 198.272 745.329 197.616L746.745 197.928ZM744.873 194.808C744.953 194.008 744.761 193.256 744.297 192.552C743.849 191.848 743.105 191.496 742.065 191.496C741.073 191.496 740.345 191.824 739.881 192.48C739.417 193.136 739.129 193.912 739.017 194.808H744.873ZM759.482 195.384C759.482 196.328 759.322 197.248 759.002 198.144C758.682 199.04 758.17 199.784 757.466 200.376C756.762 200.952 755.85 201.24 754.73 201.24C752.938 201.24 751.69 200.568 750.986 199.224L750.746 201H749.066C749.13 200.536 749.202 200.032 749.282 199.488C749.362 198.944 749.402 198.408 749.402 197.88V185.856H747.554V184.488H751.082V192.528C751.402 191.872 751.858 191.304 752.45 190.824C753.058 190.344 753.874 190.104 754.898 190.104C756.226 190.104 757.322 190.56 758.186 191.472C759.05 192.384 759.482 193.688 759.482 195.384ZM757.706 195.552C757.706 194.224 757.394 193.224 756.77 192.552C756.146 191.88 755.386 191.544 754.49 191.544C753.466 191.544 752.65 191.92 752.042 192.672C751.434 193.424 751.114 194.192 751.082 194.976V196.584C751.082 197.48 751.394 198.24 752.018 198.864C752.658 199.488 753.442 199.8 754.37 199.8C755.538 199.8 756.386 199.368 756.914 198.504C757.442 197.64 757.706 196.656 757.706 195.552ZM776.334 194.52H775.11V201H773.766L773.55 198.84C773.086 199.528 772.422 200.104 771.558 200.568C770.71 201.016 769.71 201.24 768.558 201.24C766.414 201.24 764.678 200.472 763.35 198.936C762.022 197.4 761.358 195.512 761.358 193.272C761.358 191.768 761.678 190.408 762.318 189.192C762.974 187.96 763.87 186.984 765.006 186.264C766.158 185.528 767.478 185.16 768.966 185.16C770.214 185.16 771.302 185.336 772.23 185.688C773.174 186.024 773.942 186.456 774.534 186.984L774.966 189.912L773.478 190.08L772.998 187.872C772.566 187.584 772.038 187.328 771.414 187.104C770.806 186.864 770.022 186.744 769.062 186.744C767.318 186.744 765.91 187.344 764.838 188.544C763.766 189.744 763.23 191.296 763.23 193.2C763.23 195.136 763.742 196.696 764.766 197.88C765.79 199.064 767.158 199.656 768.87 199.656C770.294 199.656 771.398 199.272 772.182 198.504C772.966 197.72 773.358 196.856 773.358 195.912V194.52H769.638V192.96H776.334V194.52ZM789.256 201H778V199.464H779.968V186.936H778V185.4H784.336V186.936H781.72V199.464H787.696L788.176 195.888L789.736 196.008L789.256 201ZM797.654 184.488L792.494 201H790.838L795.998 184.488H797.654ZM813.203 201H807.755V199.464H809.675L805.691 194.136L801.875 199.464H803.723V201H798.347V199.464H799.955L804.803 192.936L800.171 186.936H798.611V185.4H803.939V186.936H802.187L805.811 191.736L809.267 186.936H807.683V185.4H812.963V186.936H811.235L806.699 192.912L811.715 199.464H813.203V201ZM827.935 201H824.815L821.455 194.472H818.119V199.464H820.207V201H814.375V199.464H816.343V186.936H814.375V185.4H821.119C823.055 185.4 824.439 185.824 825.271 186.672C826.103 187.504 826.519 188.552 826.519 189.816C826.519 190.824 826.239 191.728 825.679 192.528C825.119 193.312 824.287 193.848 823.183 194.136L825.967 199.464H827.935V201ZM824.671 189.888C824.671 188.864 824.375 188.12 823.783 187.656C823.191 187.176 822.231 186.936 820.903 186.936H818.119V193.008H820.951C822.279 193.008 823.231 192.736 823.807 192.192C824.383 191.632 824.671 190.864 824.671 189.888Z" fill="black"/>
<rect x="702" y="98" width="141" height="59" fill="#C4C4C4"/>
<path d="M744.376 125.152L742.816 125.272L742.336 121.936H738.304V134.464H741.064V136H733.864V134.464H736.552V121.936H732.52L732.04 125.272L730.504 125.152L730.96 120.4H743.896L744.376 125.152ZM758.107 136H752.683V134.632H754.555V129.664C754.555 128.512 754.315 127.704 753.835 127.24C753.371 126.76 752.771 126.52 752.035 126.52C751.107 126.52 750.347 126.84 749.755 127.48C749.179 128.104 748.875 128.808 748.843 129.592V134.632H750.691V136H745.291V134.632H747.139V120.856H745.291V119.488H748.843V127.24C749.627 125.816 750.875 125.104 752.587 125.104C753.627 125.104 754.499 125.424 755.203 126.064C755.907 126.704 756.259 127.736 756.259 129.16V134.632H758.107V136ZM765.129 125.128C765.897 125.128 766.505 125.312 766.953 125.68L767.361 128.368L765.993 128.536L765.585 126.712C765.313 126.616 765.041 126.568 764.769 126.568C764.145 126.568 763.625 126.832 763.209 127.36C762.793 127.872 762.585 128.544 762.585 129.376V134.632H765.057V136H759.033V134.632H760.905V126.688H758.985V125.32H762.489V127.24C762.697 126.648 763.033 126.152 763.497 125.752C763.977 125.336 764.521 125.128 765.129 125.128ZM778.831 132.928C778.687 133.84 778.231 134.624 777.463 135.28C776.695 135.92 775.655 136.24 774.343 136.24C772.839 136.24 771.623 135.768 770.695 134.824C769.767 133.88 769.303 132.544 769.303 130.816C769.303 129.152 769.743 127.784 770.623 126.712C771.503 125.64 772.695 125.104 774.199 125.104C775.671 125.104 776.791 125.568 777.559 126.496C778.327 127.424 778.719 128.52 778.735 129.784C778.735 130.2 778.687 130.624 778.591 131.056H771.079C771.175 133.552 772.303 134.8 774.463 134.8C775.311 134.8 775.975 134.6 776.455 134.2C776.935 133.8 777.255 133.272 777.415 132.616L778.831 132.928ZM776.959 129.808C777.039 129.008 776.847 128.256 776.383 127.552C775.935 126.848 775.191 126.496 774.151 126.496C773.159 126.496 772.431 126.824 771.967 127.48C771.503 128.136 771.215 128.912 771.103 129.808H776.959ZM790.104 132.928C789.96 133.84 789.504 134.624 788.736 135.28C787.968 135.92 786.928 136.24 785.616 136.24C784.112 136.24 782.896 135.768 781.968 134.824C781.04 133.88 780.576 132.544 780.576 130.816C780.576 129.152 781.016 127.784 781.896 126.712C782.776 125.64 783.968 125.104 785.472 125.104C786.944 125.104 788.064 125.568 788.832 126.496C789.6 127.424 789.992 128.52 790.008 129.784C790.008 130.2 789.96 130.624 789.864 131.056H782.352C782.448 133.552 783.576 134.8 785.736 134.8C786.584 134.8 787.248 134.6 787.728 134.2C788.208 133.8 788.528 133.272 788.688 132.616L790.104 132.928ZM788.232 129.808C788.312 129.008 788.12 128.256 787.656 127.552C787.208 126.848 786.464 126.496 785.424 126.496C784.432 126.496 783.704 126.824 783.24 127.48C782.776 128.136 782.488 128.912 782.376 129.808H788.232ZM800.97 121.936H799.242V132.016C799.242 133.424 798.89 134.48 798.186 135.184C797.482 135.888 796.498 136.24 795.234 136.24C794.21 136.24 793.386 136.024 792.762 135.592C792.154 135.144 791.682 134.568 791.346 133.864L792.618 132.904C792.954 133.56 793.314 134.008 793.698 134.248C794.098 134.472 794.562 134.584 795.09 134.584C795.938 134.584 796.546 134.352 796.914 133.888C797.298 133.424 797.49 132.8 797.49 132.016V121.936H794.394V120.4H800.97V121.936ZM813.643 131.632C813.643 133.136 813.107 134.28 812.035 135.064C810.979 135.848 809.659 136.24 808.075 136.24C805.899 136.24 804.227 135.816 803.059 134.968L803.395 131.896L804.835 132.04L804.739 134.008C805.267 134.28 805.795 134.464 806.323 134.56C806.851 134.656 807.403 134.704 807.979 134.704C809.003 134.704 809.883 134.488 810.619 134.056C811.371 133.608 811.747 132.856 811.747 131.8C811.747 130.616 811.339 129.848 810.523 129.496C809.707 129.128 808.819 128.832 807.859 128.608C807.123 128.448 806.395 128.248 805.675 128.008C804.955 127.752 804.355 127.36 803.875 126.832C803.395 126.288 803.155 125.504 803.155 124.48C803.155 123.008 803.643 121.92 804.619 121.216C805.611 120.512 806.779 120.16 808.123 120.16C808.987 120.16 809.859 120.28 810.739 120.52C811.619 120.76 812.307 121.072 812.803 121.456L812.947 124.552L811.507 124.696L811.267 122.368C810.771 122.112 810.267 121.944 809.755 121.864C809.243 121.768 808.755 121.72 808.291 121.72C807.315 121.72 806.523 121.944 805.915 122.392C805.323 122.824 805.027 123.456 805.027 124.288C805.027 125.264 805.387 125.92 806.107 126.256C806.827 126.592 807.627 126.864 808.507 127.072C809.211 127.232 809.955 127.44 810.739 127.696C811.539 127.936 812.219 128.36 812.779 128.968C813.355 129.56 813.643 130.448 813.643 131.632Z" fill="black"/>
<rect x="655" y="21" width="235" height="59" fill="#E6D09A"/>
<path d="M755.84 59H743.96V56.72H745.76V45.68H743.96V43.4H755.672L756.152 47.912L753.872 48.104L753.392 45.68H748.424V50H755.288V52.28H748.424V56.72H753.56L754.04 54.296L756.32 54.488L755.84 59ZM771.268 57.512C770.708 58.04 769.908 58.464 768.868 58.784C767.844 59.088 766.78 59.24 765.676 59.24C763.42 59.24 761.556 58.512 760.084 57.056C758.628 55.584 757.9 53.696 757.9 51.392C757.9 50.096 758.172 48.816 758.716 47.552C759.26 46.288 760.108 45.24 761.26 44.408C762.412 43.576 763.884 43.16 765.676 43.16C766.988 43.16 768.108 43.344 769.036 43.712C769.964 44.08 770.7 44.512 771.244 45.008L771.652 48.392L769.468 48.608L769.084 46.448C768.124 45.824 766.972 45.512 765.628 45.512C764.156 45.512 762.972 46.024 762.076 47.048C761.196 48.072 760.756 49.472 760.756 51.248C760.756 53.104 761.228 54.512 762.172 55.472C763.116 56.416 764.356 56.888 765.892 56.888C767.172 56.888 768.22 56.664 769.036 56.216L769.42 53.888L771.604 54.104L771.268 57.512ZM784.936 54.416C784.936 55.968 784.392 57.16 783.304 57.992C782.232 58.824 780.808 59.24 779.032 59.24C777.976 59.24 776.952 59.112 775.96 58.856C774.984 58.6 774.208 58.232 773.632 57.752L774.064 54.176L776.2 54.392L776.152 56.312C776.68 56.584 777.16 56.76 777.592 56.84C778.04 56.904 778.456 56.936 778.84 56.936C779.768 56.936 780.536 56.792 781.144 56.504C781.768 56.2 782.08 55.6 782.08 54.704C782.08 53.728 781.728 53.08 781.024 52.76C780.32 52.424 779.512 52.168 778.6 51.992C777.864 51.848 777.12 51.656 776.368 51.416C775.616 51.176 774.992 50.776 774.496 50.216C774 49.656 773.752 48.832 773.752 47.744C773.752 46.112 774.304 44.944 775.408 44.24C776.528 43.52 777.776 43.16 779.152 43.16C780.112 43.16 781.04 43.304 781.936 43.592C782.848 43.88 783.56 44.256 784.072 44.72L784.216 48.008L782.08 48.2L781.864 46.184C781.416 45.928 780.968 45.752 780.52 45.656C780.072 45.56 779.64 45.512 779.224 45.512C778.472 45.512 777.848 45.664 777.352 45.968C776.856 46.272 776.608 46.76 776.608 47.432C776.608 48.216 776.912 48.752 777.52 49.04C778.144 49.312 778.84 49.536 779.608 49.712C780.264 49.856 781.008 50.048 781.84 50.288C782.672 50.528 783.392 50.96 784 51.584C784.624 52.192 784.936 53.136 784.936 54.416ZM800.821 45.68H799.405L794.749 52.952V56.72H797.365V59H789.589V56.72H792.085V52.928L787.261 45.68H785.821V43.4H791.989V45.68H790.357L793.477 50.576H793.621L796.669 45.68H794.941V43.4H800.821V45.68Z" fill="black"/>
<rect x="655" y="163" width="235" height="59" fill="#C4C4C4"/>
<path d="M710.866 186.936H709.546L705.37 201H703.954L699.85 188.52H699.754L695.77 201H694.354L689.89 186.936H688.57V185.4H693.97V186.936H691.762L695.05 198.144H695.146L698.746 186.936H697.186V185.4H702.562V186.936H701.002L704.65 198.216H704.746L707.77 186.936H705.514V185.4H710.866V186.936ZM720.315 197.928C720.171 198.84 719.715 199.624 718.947 200.28C718.179 200.92 717.139 201.24 715.827 201.24C714.323 201.24 713.107 200.768 712.179 199.824C711.251 198.88 710.787 197.544 710.787 195.816C710.787 194.152 711.227 192.784 712.107 191.712C712.987 190.64 714.179 190.104 715.683 190.104C717.155 190.104 718.275 190.568 719.043 191.496C719.811 192.424 720.203 193.52 720.219 194.784C720.219 195.2 720.171 195.624 720.075 196.056H712.563C712.659 198.552 713.787 199.8 715.947 199.8C716.795 199.8 717.459 199.6 717.939 199.2C718.419 198.8 718.739 198.272 718.899 197.616L720.315 197.928ZM718.443 194.808C718.523 194.008 718.331 193.256 717.867 192.552C717.419 191.848 716.675 191.496 715.635 191.496C714.643 191.496 713.915 191.824 713.451 192.48C712.987 193.136 712.699 193.912 712.587 194.808H718.443ZM733.052 195.384C733.052 196.328 732.892 197.248 732.572 198.144C732.252 199.04 731.74 199.784 731.036 200.376C730.332 200.952 729.42 201.24 728.3 201.24C726.508 201.24 725.26 200.568 724.556 199.224L724.316 201H722.636C722.7 200.536 722.772 200.032 722.852 199.488C722.932 198.944 722.972 198.408 722.972 197.88V185.856H721.124V184.488H724.652V192.528C724.972 191.872 725.428 191.304 726.02 190.824C726.628 190.344 727.444 190.104 728.468 190.104C729.796 190.104 730.892 190.56 731.756 191.472C732.62 192.384 733.052 193.688 733.052 195.384ZM731.276 195.552C731.276 194.224 730.964 193.224 730.34 192.552C729.716 191.88 728.956 191.544 728.06 191.544C727.036 191.544 726.22 191.92 725.612 192.672C725.004 193.424 724.684 194.192 724.652 194.976V196.584C724.652 197.48 724.964 198.24 725.588 198.864C726.228 199.488 727.012 199.8 727.94 199.8C729.108 199.8 729.956 199.368 730.484 198.504C731.012 197.64 731.276 196.656 731.276 195.552ZM749.905 194.52H748.681V201H747.337L747.121 198.84C746.657 199.528 745.993 200.104 745.129 200.568C744.281 201.016 743.281 201.24 742.129 201.24C739.985 201.24 738.249 200.472 736.921 198.936C735.593 197.4 734.929 195.512 734.929 193.272C734.929 191.768 735.249 190.408 735.889 189.192C736.545 187.96 737.441 186.984 738.577 186.264C739.729 185.528 741.049 185.16 742.537 185.16C743.785 185.16 744.873 185.336 745.801 185.688C746.745 186.024 747.513 186.456 748.105 186.984L748.537 189.912L747.049 190.08L746.569 187.872C746.137 187.584 745.609 187.328 744.985 187.104C744.377 186.864 743.593 186.744 742.633 186.744C740.889 186.744 739.481 187.344 738.409 188.544C737.337 189.744 736.801 191.296 736.801 193.2C736.801 195.136 737.313 196.696 738.337 197.88C739.361 199.064 740.729 199.656 742.441 199.656C743.865 199.656 744.969 199.272 745.753 198.504C746.537 197.72 746.929 196.856 746.929 195.912V194.52H743.209V192.96H749.905V194.52ZM762.827 201H751.571V199.464H753.539V186.936H751.571V185.4H757.907V186.936H755.291V199.464H761.267L761.747 195.888L763.307 196.008L762.827 201ZM771.225 184.488L766.065 201H764.409L769.569 184.488H771.225ZM787.311 194.52H786.087V201H784.743L784.527 198.84C784.063 199.528 783.399 200.104 782.535 200.568C781.687 201.016 780.687 201.24 779.535 201.24C777.391 201.24 775.655 200.472 774.327 198.936C772.999 197.4 772.335 195.512 772.335 193.272C772.335 191.768 772.655 190.408 773.295 189.192C773.951 187.96 774.847 186.984 775.983 186.264C777.135 185.528 778.455 185.16 779.943 185.16C781.191 185.16 782.279 185.336 783.207 185.688C784.151 186.024 784.919 186.456 785.511 186.984L785.943 189.912L784.455 190.08L783.975 187.872C783.543 187.584 783.015 187.328 782.391 187.104C781.783 186.864 780.999 186.744 780.039 186.744C778.295 186.744 776.887 187.344 775.815 188.544C774.743 189.744 774.207 191.296 774.207 193.2C774.207 195.136 774.719 196.696 775.743 197.88C776.767 199.064 778.135 199.656 779.847 199.656C781.271 199.656 782.375 199.272 783.159 198.504C783.943 197.72 784.335 196.856 784.335 195.912V194.52H780.615V192.96H787.311V194.52ZM801.025 190.176C801.025 191.808 800.529 193.056 799.537 193.92C798.545 194.768 797.281 195.192 795.745 195.192H792.697V199.464H795.385V201H788.977V199.464H790.945V186.936H788.977V185.4H795.601C797.537 185.4 798.921 185.872 799.753 186.816C800.601 187.76 801.025 188.88 801.025 190.176ZM799.153 190.224C799.153 189.216 798.857 188.416 798.265 187.824C797.673 187.232 796.737 186.936 795.457 186.936H792.697V193.656H795.529C797.945 193.656 799.153 192.512 799.153 190.224ZM818.07 186.936H816.558V194.592C816.558 195.696 816.366 196.76 815.982 197.784C815.614 198.792 814.974 199.624 814.062 200.28C813.166 200.92 811.918 201.24 810.318 201.24C807.998 201.24 806.398 200.6 805.518 199.32C804.654 198.024 804.222 196.536 804.222 194.856V186.936H802.614V185.4H808.158V186.936H805.998V194.808C805.998 196.344 806.358 197.536 807.078 198.384C807.798 199.232 808.91 199.656 810.414 199.656C813.406 199.656 814.902 197.968 814.902 194.592V186.936H812.67V185.4H818.07V186.936ZM825.904 184.488L820.744 201H819.088L824.248 184.488H825.904ZM841.453 201H836.005V199.464H837.925L833.941 194.136L830.125 199.464H831.973V201H826.597V199.464H828.205L833.053 192.936L828.421 186.936H826.861V185.4H832.189V186.936H830.437L834.061 191.736L837.517 186.936H835.933V185.4H841.213V186.936H839.485L834.949 192.912L839.965 199.464H841.453V201ZM856.185 201H853.065L849.705 194.472H846.369V199.464H848.457V201H842.625V199.464H844.593V186.936H842.625V185.4H849.369C851.305 185.4 852.689 185.824 853.521 186.672C854.353 187.504 854.769 188.552 854.769 189.816C854.769 190.824 854.489 191.728 853.929 192.528C853.369 193.312 852.537 193.848 851.433 194.136L854.217 199.464H856.185V201ZM852.921 189.888C852.921 188.864 852.625 188.12 852.033 187.656C851.441 187.176 850.481 186.936 849.153 186.936H846.369V193.008H849.201C850.529 193.008 851.481 192.736 852.057 192.192C852.633 191.632 852.921 190.864 852.921 189.888Z" fill="black"/>
<rect x="655" y="86" width="235" height="71" fill="#C4C4C4"/>
<path d="M720.146 110.504C720.595 110.2 721.179 109.92 721.899 109.664C722.635 109.392 723.403 109.256 724.203 109.256C725.467 109.256 726.507 109.584 727.323 110.24C728.155 110.896 728.571 111.84 728.571 113.072C728.571 113.856 728.347 114.584 727.899 115.256C727.467 115.912 726.691 116.416 725.571 116.768V116.864C726.995 117.104 727.963 117.592 728.475 118.328C728.987 119.064 729.243 119.888 729.243 120.8C729.243 122.192 728.787 123.304 727.875 124.136C726.979 124.968 725.747 125.384 724.179 125.384C722.707 125.384 721.587 125.056 720.819 124.4C720.051 123.744 719.571 122.944 719.379 122L720.747 121.52C720.971 122.16 721.339 122.712 721.851 123.176C722.363 123.64 723.123 123.872 724.131 123.872C725.411 123.872 726.267 123.544 726.699 122.888C727.147 122.232 727.371 121.504 727.371 120.704C727.371 119.76 727.035 119.024 726.363 118.496C725.691 117.968 724.515 117.68 722.835 117.632V116.336C724.339 116.272 725.363 115.92 725.907 115.28C726.451 114.624 726.723 113.96 726.723 113.288C726.723 112.504 726.467 111.888 725.955 111.44C725.459 110.992 724.763 110.768 723.867 110.768C723.083 110.768 722.315 110.968 721.562 111.368L721.131 113.312L719.739 113.144L720.146 110.504ZM746.265 114.176C746.265 116.464 745.561 118.344 744.153 119.816C742.761 121.272 740.833 122 738.369 122H731.313V120.488H733.281V107.912H731.313V106.4H738.297C740.841 106.4 742.801 107.136 744.177 108.608C745.569 110.064 746.265 111.92 746.265 114.176ZM744.393 114.2C744.393 112.312 743.865 110.792 742.809 109.64C741.769 108.488 740.257 107.912 738.273 107.912H735.033V120.488H738.273C740.257 120.488 741.769 119.928 742.809 118.808C743.865 117.672 744.393 116.136 744.393 114.2ZM765.288 122H753.672V120.464H755.64V107.936H753.672V106.4H765.072L765.552 110.816L764.016 110.984L763.536 107.936H757.392V113.312H764.76V114.848H757.392V120.464H763.752L764.232 117.416L765.744 117.584L765.288 122ZM780.309 122H774.909V120.632H776.757V115.664C776.757 114.512 776.525 113.704 776.061 113.24C775.597 112.76 775.005 112.52 774.285 112.52C773.325 112.52 772.549 112.84 771.957 113.48C771.381 114.104 771.077 114.824 771.045 115.64V120.632H772.917V122H767.493V120.632H769.365V112.688H767.445V111.32H771.045V113.216C771.813 111.808 773.061 111.104 774.789 111.104C775.829 111.104 776.701 111.424 777.405 112.064C778.109 112.704 778.461 113.736 778.461 115.16V120.632H780.309V122ZM793.275 112.688H791.547V121.856C791.547 123.536 791.083 124.872 790.155 125.864C789.243 126.856 787.955 127.352 786.291 127.352C785.171 127.352 784.163 127.096 783.267 126.584C782.387 126.072 781.803 125.28 781.515 124.208L782.859 123.536C783.131 124.368 783.603 124.968 784.275 125.336C784.947 125.72 785.643 125.912 786.363 125.912C787.387 125.912 788.219 125.552 788.859 124.832C789.515 124.128 789.843 123.112 789.843 121.784V119.816C789.523 120.44 789.059 120.984 788.451 121.448C787.843 121.912 787.035 122.144 786.027 122.144C784.763 122.144 783.683 121.696 782.787 120.8C781.891 119.904 781.443 118.616 781.443 116.936C781.443 115.512 781.827 114.184 782.595 112.952C783.363 111.72 784.571 111.104 786.219 111.104C787.915 111.104 789.123 111.736 789.843 113V111.32H793.275V112.688ZM789.843 117.392V115.544C789.843 114.648 789.531 113.928 788.907 113.384C788.299 112.824 787.555 112.544 786.675 112.544C785.475 112.544 784.603 112.976 784.059 113.84C783.531 114.704 783.267 115.696 783.267 116.816C783.267 118.128 783.563 119.104 784.155 119.744C784.763 120.384 785.507 120.704 786.387 120.704C787.411 120.704 788.235 120.352 788.859 119.648C789.483 118.944 789.811 118.192 789.843 117.392ZM796.2 108.56V106.376H798.024V108.56H796.2ZM799.92 122H794.496V120.632H796.368V112.688H794.448V111.32H798.048V120.632H799.92V122ZM813.942 122H808.542V120.632H810.39V115.664C810.39 114.512 810.158 113.704 809.694 113.24C809.23 112.76 808.638 112.52 807.918 112.52C806.958 112.52 806.182 112.84 805.59 113.48C805.014 114.104 804.71 114.824 804.678 115.64V120.632H806.55V122H801.126V120.632H802.998V112.688H801.078V111.32H804.678V113.216C805.446 111.808 806.694 111.104 808.422 111.104C809.462 111.104 810.334 111.424 811.038 112.064C811.742 112.704 812.094 113.736 812.094 115.16V120.632H813.942V122ZM824.604 118.928C824.46 119.84 824.004 120.624 823.236 121.28C822.468 121.92 821.428 122.24 820.116 122.24C818.612 122.24 817.396 121.768 816.468 120.824C815.54 119.88 815.076 118.544 815.076 116.816C815.076 115.152 815.516 113.784 816.396 112.712C817.276 111.64 818.468 111.104 819.972 111.104C821.444 111.104 822.564 111.568 823.332 112.496C824.1 113.424 824.492 114.52 824.508 115.784C824.508 116.2 824.46 116.624 824.364 117.056H816.852C816.948 119.552 818.076 120.8 820.236 120.8C821.084 120.8 821.748 120.6 822.228 120.2C822.708 119.8 823.028 119.272 823.188 118.616L824.604 118.928ZM822.732 115.808C822.812 115.008 822.62 114.256 822.156 113.552C821.708 112.848 820.964 112.496 819.924 112.496C818.932 112.496 818.204 112.824 817.74 113.48C817.276 114.136 816.988 114.912 816.876 115.808H822.732ZM702.853 131.076H704.059C702.067 133.608 701.071 136.296 701.071 139.14C701.071 140.532 701.317 141.93 701.809 143.334C702.313 144.738 703.063 146.058 704.059 147.294H702.817C701.821 145.974 701.095 144.63 700.639 143.262C700.183 141.882 699.955 140.508 699.955 139.14C699.955 137.748 700.189 136.374 700.657 135.018C701.137 133.662 701.869 132.348 702.853 131.076ZM714.974 135.864L713.804 135.954L713.444 133.452H710.42V142.848H712.49V144H707.09V142.848H709.106V133.452H706.082L705.722 135.954L704.57 135.864L704.912 132.3H714.614L714.974 135.864ZM725.272 144H721.204V142.974H722.608V139.248C722.608 138.384 722.428 137.778 722.068 137.43C721.72 137.07 721.27 136.89 720.718 136.89C720.022 136.89 719.452 137.13 719.008 137.61C718.576 138.078 718.348 138.606 718.324 139.194V142.974H719.71V144H715.66V142.974H717.046V132.642H715.66V131.616H718.324V137.43C718.912 136.362 719.848 135.828 721.132 135.828C721.912 135.828 722.566 136.068 723.094 136.548C723.622 137.028 723.886 137.802 723.886 138.87V142.974H725.272V144ZM730.539 135.846C731.115 135.846 731.571 135.984 731.907 136.26L732.213 138.276L731.187 138.402L730.881 137.034C730.677 136.962 730.473 136.926 730.269 136.926C729.801 136.926 729.411 137.124 729.099 137.52C728.787 137.904 728.631 138.408 728.631 139.032V142.974H730.485V144H725.967V142.974H727.371V137.016H725.931V135.99H728.559V137.43C728.715 136.986 728.967 136.614 729.315 136.314C729.675 136.002 730.083 135.846 730.539 135.846ZM740.815 141.696C740.707 142.38 740.365 142.968 739.789 143.46C739.213 143.94 738.433 144.18 737.449 144.18C736.321 144.18 735.409 143.826 734.713 143.118C734.017 142.41 733.669 141.408 733.669 140.112C733.669 138.864 733.999 137.838 734.659 137.034C735.319 136.23 736.213 135.828 737.341 135.828C738.445 135.828 739.285 136.176 739.861 136.872C740.437 137.568 740.731 138.39 740.743 139.338C740.743 139.65 740.707 139.968 740.635 140.292H735.001C735.073 142.164 735.919 143.1 737.539 143.1C738.175 143.1 738.673 142.95 739.033 142.65C739.393 142.35 739.633 141.954 739.753 141.462L740.815 141.696ZM739.411 139.356C739.471 138.756 739.327 138.192 738.979 137.664C738.643 137.136 738.085 136.872 737.305 136.872C736.561 136.872 736.015 137.118 735.667 137.61C735.319 138.102 735.103 138.684 735.019 139.356H739.411ZM749.27 141.696C749.162 142.38 748.82 142.968 748.244 143.46C747.668 143.94 746.888 144.18 745.904 144.18C744.776 144.18 743.864 143.826 743.168 143.118C742.472 142.41 742.124 141.408 742.124 140.112C742.124 138.864 742.454 137.838 743.114 137.034C743.774 136.23 744.668 135.828 745.796 135.828C746.9 135.828 747.74 136.176 748.316 136.872C748.892 137.568 749.186 138.39 749.198 139.338C749.198 139.65 749.162 139.968 749.09 140.292H743.456C743.528 142.164 744.374 143.1 745.994 143.1C746.63 143.1 747.128 142.95 747.488 142.65C747.848 142.35 748.088 141.954 748.208 141.462L749.27 141.696ZM747.866 139.356C747.926 138.756 747.782 138.192 747.434 137.664C747.098 137.136 746.54 136.872 745.76 136.872C745.016 136.872 744.47 137.118 744.122 137.61C743.774 138.102 743.558 138.684 743.474 139.356H747.866ZM751.714 133.92V132.282H753.082V133.92H751.714ZM753.082 144.234C753.082 145.758 752.752 146.79 752.092 147.33C751.444 147.882 750.628 148.116 749.644 148.032L749.608 147.06C749.944 147.06 750.28 147.006 750.616 146.898C750.952 146.79 751.234 146.532 751.462 146.124C751.69 145.728 751.804 145.098 751.804 144.234V137.016H750.022V135.99H753.082V144.234ZM761.613 141.678C761.613 142.458 761.283 143.07 760.623 143.514C759.975 143.958 759.171 144.18 758.211 144.18C757.647 144.18 757.083 144.108 756.519 143.964C755.967 143.808 755.517 143.616 755.169 143.388L755.421 141.57L756.429 141.678L756.375 142.74C756.927 143.004 757.521 143.136 758.157 143.136C758.721 143.136 759.219 143.028 759.651 142.812C760.095 142.584 760.317 142.242 760.317 141.786C760.317 141.342 760.149 141.03 759.813 140.85C759.477 140.67 759.057 140.538 758.553 140.454C758.061 140.37 757.563 140.268 757.059 140.148C756.555 140.028 756.135 139.824 755.799 139.536C755.463 139.236 755.295 138.774 755.295 138.15C755.295 137.298 755.607 136.698 756.231 136.35C756.855 136.002 757.533 135.828 758.265 135.828C758.817 135.828 759.333 135.9 759.813 136.044C760.305 136.188 760.719 136.362 761.055 136.566L761.253 138.438L760.209 138.564L760.011 137.268C759.507 137.004 758.961 136.872 758.373 136.872C757.869 136.872 757.455 136.968 757.131 137.16C756.807 137.352 756.645 137.652 756.645 138.06C756.645 138.48 756.813 138.78 757.149 138.96C757.485 139.128 757.899 139.254 758.391 139.338C758.883 139.41 759.375 139.506 759.867 139.626C760.359 139.746 760.773 139.962 761.109 140.274C761.445 140.574 761.613 141.042 761.613 141.678ZM762.755 145.836L763.691 141.948H764.951L763.997 145.836H762.755ZM780.174 140.688C780.174 141.612 779.844 142.398 779.184 143.046C778.524 143.682 777.546 144 776.25 144H770.778V142.848H772.254V133.452H770.778V132.3H776.16C777.348 132.3 778.23 132.558 778.806 133.074C779.394 133.59 779.688 134.268 779.688 135.108C779.688 135.732 779.502 136.278 779.13 136.746C778.758 137.214 778.272 137.508 777.672 137.628V137.7C778.524 137.832 779.154 138.18 779.562 138.744C779.97 139.296 780.174 139.944 780.174 140.688ZM778.284 135.414C778.284 134.682 778.074 134.172 777.654 133.884C777.246 133.596 776.676 133.452 775.944 133.452H773.568V137.412H775.89C776.586 137.412 777.156 137.244 777.6 136.908C778.056 136.56 778.284 136.062 778.284 135.414ZM778.77 140.616C778.77 139.956 778.572 139.44 778.176 139.068C777.792 138.684 777.216 138.492 776.448 138.492H773.568V142.848H776.016C776.856 142.848 777.522 142.674 778.014 142.326C778.518 141.966 778.77 141.396 778.77 140.616ZM782.344 136.602C782.764 136.326 783.208 136.128 783.676 136.008C784.144 135.888 784.642 135.828 785.17 135.828C787.078 135.828 788.032 136.722 788.032 138.51V142.326C788.032 142.902 788.26 143.19 788.716 143.19C788.92 143.19 789.1 143.154 789.256 143.082L789.274 143.91C788.95 144.09 788.602 144.18 788.23 144.18C787.282 144.18 786.796 143.64 786.772 142.56V142.524C786.52 142.956 786.16 143.34 785.692 143.676C785.236 144.012 784.684 144.18 784.036 144.18C783.508 144.18 782.968 144.018 782.416 143.694C781.876 143.37 781.606 142.782 781.606 141.93C781.606 140.922 782.002 140.262 782.794 139.95C783.598 139.626 784.45 139.464 785.35 139.464C785.59 139.464 785.83 139.47 786.07 139.482C786.322 139.494 786.556 139.512 786.772 139.536V138.816C786.772 138.24 786.646 137.772 786.394 137.412C786.154 137.052 785.674 136.872 784.954 136.872C784.366 136.872 783.85 136.98 783.406 137.196L783.1 138.582L782.056 138.456L782.344 136.602ZM786.772 140.994V140.382C786.544 140.37 786.304 140.352 786.052 140.328C785.8 140.304 785.542 140.292 785.278 140.292C784.678 140.292 784.132 140.388 783.64 140.58C783.16 140.76 782.92 141.162 782.92 141.786C782.92 142.302 783.082 142.656 783.406 142.848C783.73 143.04 784.066 143.136 784.414 143.136C784.966 143.136 785.482 142.944 785.962 142.56C786.454 142.176 786.724 141.654 786.772 140.994ZM798.515 139.788C798.515 140.496 798.395 141.186 798.155 141.858C797.915 142.53 797.531 143.088 797.003 143.532C796.475 143.964 795.791 144.18 794.951 144.18C793.607 144.18 792.671 143.676 792.143 142.668L791.963 144H790.703C790.751 143.652 790.805 143.274 790.865 142.866C790.925 142.458 790.955 142.056 790.955 141.66V132.642H789.569V131.616H792.215V137.646C792.455 137.154 792.797 136.728 793.241 136.368C793.697 136.008 794.309 135.828 795.077 135.828C796.073 135.828 796.895 136.17 797.543 136.854C798.191 137.538 798.515 138.516 798.515 139.788ZM797.183 139.914C797.183 138.918 796.949 138.168 796.481 137.664C796.013 137.16 795.443 136.908 794.771 136.908C794.003 136.908 793.391 137.19 792.935 137.754C792.479 138.318 792.239 138.894 792.215 139.482V140.688C792.215 141.36 792.449 141.93 792.917 142.398C793.397 142.866 793.985 143.1 794.681 143.1C795.557 143.1 796.193 142.776 796.589 142.128C796.985 141.48 797.183 140.742 797.183 139.914ZM807.939 137.016H806.985L804.159 144L803.079 146.808H804.447V147.834H800.379V146.808H801.873L802.917 143.982L800.001 137.016H799.047V135.99H802.755V137.016H801.351L803.601 142.398H803.709L805.707 137.016H804.411V135.99H807.939V137.016ZM812.296 144H808.228V142.974H809.632V132.642H808.21V131.616H810.892V142.974H812.296V144ZM821.217 139.986C821.217 141.198 820.857 142.2 820.137 142.992C819.417 143.784 818.439 144.18 817.203 144.18C815.991 144.18 815.037 143.796 814.341 143.028C813.657 142.26 813.315 141.27 813.315 140.058C813.315 138.894 813.651 137.898 814.323 137.07C814.995 136.23 815.979 135.81 817.275 135.81C818.583 135.81 819.567 136.224 820.227 137.052C820.887 137.868 821.217 138.846 821.217 139.986ZM819.885 139.968C819.885 139.056 819.651 138.318 819.183 137.754C818.727 137.178 818.079 136.89 817.239 136.89C816.399 136.89 815.751 137.184 815.295 137.772C814.851 138.36 814.629 139.098 814.629 139.986C814.629 140.862 814.851 141.6 815.295 142.2C815.739 142.8 816.387 143.1 817.239 143.1C818.091 143.1 818.745 142.806 819.201 142.218C819.657 141.618 819.885 140.868 819.885 139.968ZM832.03 144H827.98V142.974H829.366V139.248C829.366 138.384 829.192 137.778 828.844 137.43C828.496 137.07 828.052 136.89 827.512 136.89C826.792 136.89 826.21 137.13 825.766 137.61C825.334 138.078 825.106 138.618 825.082 139.23V142.974H826.486V144H822.418V142.974H823.822V137.016H822.382V135.99H825.082V137.412C825.658 136.356 826.594 135.828 827.89 135.828C828.67 135.828 829.324 136.068 829.852 136.548C830.38 137.028 830.644 137.802 830.644 138.87V142.974H832.03V144ZM833.222 144V142.056H834.968V144H833.222ZM837.019 144V142.056H838.765V144H837.019ZM841.122 147.294H839.916C841.908 144.762 842.904 142.074 842.904 139.23C842.904 137.838 842.652 136.446 842.148 135.054C841.656 133.65 840.912 132.324 839.916 131.076H841.158C842.154 132.396 842.88 133.746 843.336 135.126C843.792 136.494 844.02 137.862 844.02 139.23C844.02 140.61 843.78 141.978 843.3 143.334C842.832 144.69 842.106 146.01 841.122 147.294Z" fill="black"/>
<rect x="961.4" y="163" width="160.2" height="59" fill="#C4C4C4"/>
<path d="M998.466 186.936H997.146L992.97 201H991.554L987.45 188.52H987.354L983.37 201H981.954L977.49 186.936H976.17V185.4H981.57V186.936H979.362L982.65 198.144H982.746L986.346 186.936H984.786V185.4H990.162V186.936H988.602L992.25 198.216H992.346L995.37 186.936H993.114V185.4H998.466V186.936ZM1007.91 197.928C1007.77 198.84 1007.31 199.624 1006.55 200.28C1005.78 200.92 1004.74 201.24 1003.43 201.24C1001.92 201.24 1000.71 200.768 999.779 199.824C998.851 198.88 998.387 197.544 998.387 195.816C998.387 194.152 998.827 192.784 999.707 191.712C1000.59 190.64 1001.78 190.104 1003.28 190.104C1004.75 190.104 1005.87 190.568 1006.64 191.496C1007.41 192.424 1007.8 193.52 1007.82 194.784C1007.82 195.2 1007.77 195.624 1007.67 196.056H1000.16C1000.26 198.552 1001.39 199.8 1003.55 199.8C1004.39 199.8 1005.06 199.6 1005.54 199.2C1006.02 198.8 1006.34 198.272 1006.5 197.616L1007.91 197.928ZM1006.04 194.808C1006.12 194.008 1005.93 193.256 1005.47 192.552C1005.02 191.848 1004.27 191.496 1003.23 191.496C1002.24 191.496 1001.51 191.824 1001.05 192.48C1000.59 193.136 1000.3 193.912 1000.19 194.808H1006.04ZM1020.65 195.384C1020.65 196.328 1020.49 197.248 1020.17 198.144C1019.85 199.04 1019.34 199.784 1018.64 200.376C1017.93 200.952 1017.02 201.24 1015.9 201.24C1014.11 201.24 1012.86 200.568 1012.16 199.224L1011.92 201H1010.24C1010.3 200.536 1010.37 200.032 1010.45 199.488C1010.53 198.944 1010.57 198.408 1010.57 197.88V185.856H1008.72V184.488H1012.25V192.528C1012.57 191.872 1013.03 191.304 1013.62 190.824C1014.23 190.344 1015.04 190.104 1016.07 190.104C1017.4 190.104 1018.49 190.56 1019.36 191.472C1020.22 192.384 1020.65 193.688 1020.65 195.384ZM1018.88 195.552C1018.88 194.224 1018.56 193.224 1017.94 192.552C1017.32 191.88 1016.56 191.544 1015.66 191.544C1014.64 191.544 1013.82 191.92 1013.21 192.672C1012.6 193.424 1012.28 194.192 1012.25 194.976V196.584C1012.25 197.48 1012.56 198.24 1013.19 198.864C1013.83 199.488 1014.61 199.8 1015.54 199.8C1016.71 199.8 1017.56 199.368 1018.08 198.504C1018.61 197.64 1018.88 196.656 1018.88 195.552ZM1037.5 194.52H1036.28V201H1034.94L1034.72 198.84C1034.26 199.528 1033.59 200.104 1032.73 200.568C1031.88 201.016 1030.88 201.24 1029.73 201.24C1027.58 201.24 1025.85 200.472 1024.52 198.936C1023.19 197.4 1022.53 195.512 1022.53 193.272C1022.53 191.768 1022.85 190.408 1023.49 189.192C1024.14 187.96 1025.04 186.984 1026.18 186.264C1027.33 185.528 1028.65 185.16 1030.14 185.16C1031.38 185.16 1032.47 185.336 1033.4 185.688C1034.34 186.024 1035.11 186.456 1035.7 186.984L1036.14 189.912L1034.65 190.08L1034.17 187.872C1033.74 187.584 1033.21 187.328 1032.58 187.104C1031.98 186.864 1031.19 186.744 1030.23 186.744C1028.49 186.744 1027.08 187.344 1026.01 188.544C1024.94 189.744 1024.4 191.296 1024.4 193.2C1024.4 195.136 1024.91 196.696 1025.94 197.88C1026.96 199.064 1028.33 199.656 1030.04 199.656C1031.46 199.656 1032.57 199.272 1033.35 198.504C1034.14 197.72 1034.53 196.856 1034.53 195.912V194.52H1030.81V192.96H1037.5V194.52ZM1050.43 201H1039.17V199.464H1041.14V186.936H1039.17V185.4H1045.51V186.936H1042.89V199.464H1048.87L1049.35 195.888L1050.91 196.008L1050.43 201ZM1058.82 184.488L1053.66 201H1052.01L1057.17 184.488H1058.82ZM1074.37 201H1068.93V199.464H1070.85L1066.86 194.136L1063.05 199.464H1064.89V201H1059.52V199.464H1061.13L1065.97 192.936L1061.34 186.936H1059.78V185.4H1065.11V186.936H1063.36L1066.98 191.736L1070.44 186.936H1068.85V185.4H1074.13V186.936H1072.41L1067.87 192.912L1072.89 199.464H1074.37V201ZM1089.11 201H1085.99L1082.63 194.472H1079.29V199.464H1081.38V201H1075.55V199.464H1077.51V186.936H1075.55V185.4H1082.29C1084.23 185.4 1085.61 185.824 1086.44 186.672C1087.27 187.504 1087.69 188.552 1087.69 189.816C1087.69 190.824 1087.41 191.728 1086.85 192.528C1086.29 193.312 1085.46 193.848 1084.35 194.136L1087.14 199.464H1089.11V201ZM1085.84 189.888C1085.84 188.864 1085.55 188.12 1084.95 187.656C1084.36 187.176 1083.4 186.936 1082.07 186.936H1079.29V193.008H1082.12C1083.45 193.008 1084.4 192.736 1084.98 192.192C1085.55 191.632 1085.84 190.864 1085.84 189.888Z" fill="black"/>
<rect x="961.4" y="98" width="160.2" height="59" fill="#C4C4C4"/>
<path d="M1007.59 125.152L1006.03 125.272L1005.55 121.936H1001.52V134.464H1004.28V136H997.077V134.464H999.765V121.936H995.733L995.253 125.272L993.717 125.152L994.173 120.4H1007.11L1007.59 125.152ZM1021.32 136H1015.9V134.632H1017.77V129.664C1017.77 128.512 1017.53 127.704 1017.05 127.24C1016.58 126.76 1015.98 126.52 1015.25 126.52C1014.32 126.52 1013.56 126.84 1012.97 127.48C1012.39 128.104 1012.09 128.808 1012.06 129.592V134.632H1013.9V136H1008.5V134.632H1010.35V120.856H1008.5V119.488H1012.06V127.24C1012.84 125.816 1014.09 125.104 1015.8 125.104C1016.84 125.104 1017.71 125.424 1018.42 126.064C1019.12 126.704 1019.47 127.736 1019.47 129.16V134.632H1021.32V136ZM1028.34 125.128C1029.11 125.128 1029.72 125.312 1030.17 125.68L1030.57 128.368L1029.21 128.536L1028.8 126.712C1028.53 126.616 1028.25 126.568 1027.98 126.568C1027.36 126.568 1026.84 126.832 1026.42 127.36C1026.01 127.872 1025.8 128.544 1025.8 129.376V134.632H1028.27V136H1022.25V134.632H1024.12V126.688H1022.2V125.32H1025.7V127.24C1025.91 126.648 1026.25 126.152 1026.71 125.752C1027.19 125.336 1027.73 125.128 1028.34 125.128ZM1042.04 132.928C1041.9 133.84 1041.44 134.624 1040.68 135.28C1039.91 135.92 1038.87 136.24 1037.56 136.24C1036.05 136.24 1034.84 135.768 1033.91 134.824C1032.98 133.88 1032.52 132.544 1032.52 130.816C1032.52 129.152 1032.96 127.784 1033.84 126.712C1034.72 125.64 1035.91 125.104 1037.41 125.104C1038.88 125.104 1040 125.568 1040.77 126.496C1041.54 127.424 1041.93 128.52 1041.95 129.784C1041.95 130.2 1041.9 130.624 1041.8 131.056H1034.29C1034.39 133.552 1035.52 134.8 1037.68 134.8C1038.52 134.8 1039.19 134.6 1039.67 134.2C1040.15 133.8 1040.47 133.272 1040.63 132.616L1042.04 132.928ZM1040.17 129.808C1040.25 129.008 1040.06 128.256 1039.6 127.552C1039.15 126.848 1038.4 126.496 1037.36 126.496C1036.37 126.496 1035.64 126.824 1035.18 127.48C1034.72 128.136 1034.43 128.912 1034.32 129.808H1040.17ZM1053.32 132.928C1053.17 133.84 1052.72 134.624 1051.95 135.28C1051.18 135.92 1050.14 136.24 1048.83 136.24C1047.32 136.24 1046.11 135.768 1045.18 134.824C1044.25 133.88 1043.79 132.544 1043.79 130.816C1043.79 129.152 1044.23 127.784 1045.11 126.712C1045.99 125.64 1047.18 125.104 1048.68 125.104C1050.16 125.104 1051.28 125.568 1052.04 126.496C1052.81 127.424 1053.2 128.52 1053.22 129.784C1053.22 130.2 1053.17 130.624 1053.08 131.056H1045.56C1045.66 133.552 1046.79 134.8 1048.95 134.8C1049.8 134.8 1050.46 134.6 1050.94 134.2C1051.42 133.8 1051.74 133.272 1051.9 132.616L1053.32 132.928ZM1051.44 129.808C1051.52 129.008 1051.33 128.256 1050.87 127.552C1050.42 126.848 1049.68 126.496 1048.64 126.496C1047.64 126.496 1046.92 126.824 1046.45 127.48C1045.99 128.136 1045.7 128.912 1045.59 129.808H1051.44ZM1064.18 121.936H1062.45V132.016C1062.45 133.424 1062.1 134.48 1061.4 135.184C1060.69 135.888 1059.71 136.24 1058.45 136.24C1057.42 136.24 1056.6 136.024 1055.97 135.592C1055.37 135.144 1054.89 134.568 1054.56 133.864L1055.83 132.904C1056.17 133.56 1056.53 134.008 1056.91 134.248C1057.31 134.472 1057.77 134.584 1058.3 134.584C1059.15 134.584 1059.76 134.352 1060.13 133.888C1060.51 133.424 1060.7 132.8 1060.7 132.016V121.936H1057.61V120.4H1064.18V121.936ZM1076.86 131.632C1076.86 133.136 1076.32 134.28 1075.25 135.064C1074.19 135.848 1072.87 136.24 1071.29 136.24C1069.11 136.24 1067.44 135.816 1066.27 134.968L1066.61 131.896L1068.05 132.04L1067.95 134.008C1068.48 134.28 1069.01 134.464 1069.54 134.56C1070.06 134.656 1070.62 134.704 1071.19 134.704C1072.22 134.704 1073.1 134.488 1073.83 134.056C1074.58 133.608 1074.96 132.856 1074.96 131.8C1074.96 130.616 1074.55 129.848 1073.74 129.496C1072.92 129.128 1072.03 128.832 1071.07 128.608C1070.34 128.448 1069.61 128.248 1068.89 128.008C1068.17 127.752 1067.57 127.36 1067.09 126.832C1066.61 126.288 1066.37 125.504 1066.37 124.48C1066.37 123.008 1066.86 121.92 1067.83 121.216C1068.82 120.512 1069.99 120.16 1071.34 120.16C1072.2 120.16 1073.07 120.28 1073.95 120.52C1074.83 120.76 1075.52 121.072 1076.02 121.456L1076.16 124.552L1074.72 124.696L1074.48 122.368C1073.98 122.112 1073.48 121.944 1072.97 121.864C1072.46 121.768 1071.97 121.72 1071.5 121.72C1070.53 121.72 1069.74 121.944 1069.13 122.392C1068.54 122.824 1068.24 123.456 1068.24 124.288C1068.24 125.264 1068.6 125.92 1069.32 126.256C1070.04 126.592 1070.84 126.864 1071.72 127.072C1072.42 127.232 1073.17 127.44 1073.95 127.696C1074.75 127.936 1075.43 128.36 1075.99 128.968C1076.57 129.56 1076.86 130.448 1076.86 131.632Z" fill="black"/>
<rect x="908" y="21" width="267" height="59" fill="#E6D09A"/>
<path d="M1020.82 59H1008.94V56.72H1010.74V45.68H1008.94V43.4H1020.65L1021.13 47.912L1018.85 48.104L1018.37 45.68H1013.41V50H1020.27V52.28H1013.41V56.72H1018.54L1019.02 54.296L1021.3 54.488L1020.82 59ZM1036.25 57.512C1035.69 58.04 1034.89 58.464 1033.85 58.784C1032.83 59.088 1031.76 59.24 1030.66 59.24C1028.4 59.24 1026.54 58.512 1025.07 57.056C1023.61 55.584 1022.88 53.696 1022.88 51.392C1022.88 50.096 1023.15 48.816 1023.7 47.552C1024.24 46.288 1025.09 45.24 1026.24 44.408C1027.39 43.576 1028.87 43.16 1030.66 43.16C1031.97 43.16 1033.09 43.344 1034.02 43.712C1034.95 44.08 1035.68 44.512 1036.23 45.008L1036.63 48.392L1034.45 48.608L1034.07 46.448C1033.11 45.824 1031.95 45.512 1030.61 45.512C1029.14 45.512 1027.95 46.024 1027.06 47.048C1026.18 48.072 1025.74 49.472 1025.74 51.248C1025.74 53.104 1026.21 54.512 1027.15 55.472C1028.1 56.416 1029.34 56.888 1030.87 56.888C1032.15 56.888 1033.2 56.664 1034.02 56.216L1034.4 53.888L1036.59 54.104L1036.25 57.512ZM1049.92 54.416C1049.92 55.968 1049.38 57.16 1048.29 57.992C1047.22 58.824 1045.79 59.24 1044.02 59.24C1042.96 59.24 1041.94 59.112 1040.94 58.856C1039.97 58.6 1039.19 58.232 1038.62 57.752L1039.05 54.176L1041.18 54.392L1041.14 56.312C1041.66 56.584 1042.14 56.76 1042.58 56.84C1043.02 56.904 1043.44 56.936 1043.82 56.936C1044.75 56.936 1045.52 56.792 1046.13 56.504C1046.75 56.2 1047.06 55.6 1047.06 54.704C1047.06 53.728 1046.71 53.08 1046.01 52.76C1045.3 52.424 1044.5 52.168 1043.58 51.992C1042.85 51.848 1042.1 51.656 1041.35 51.416C1040.6 51.176 1039.98 50.776 1039.48 50.216C1038.98 49.656 1038.74 48.832 1038.74 47.744C1038.74 46.112 1039.29 44.944 1040.39 44.24C1041.51 43.52 1042.76 43.16 1044.14 43.16C1045.1 43.16 1046.02 43.304 1046.92 43.592C1047.83 43.88 1048.54 44.256 1049.06 44.72L1049.2 48.008L1047.06 48.2L1046.85 46.184C1046.4 45.928 1045.95 45.752 1045.5 45.656C1045.06 45.56 1044.62 45.512 1044.21 45.512C1043.46 45.512 1042.83 45.664 1042.34 45.968C1041.84 46.272 1041.59 46.76 1041.59 47.432C1041.59 48.216 1041.9 48.752 1042.5 49.04C1043.13 49.312 1043.82 49.536 1044.59 49.712C1045.25 49.856 1045.99 50.048 1046.82 50.288C1047.66 50.528 1048.38 50.96 1048.98 51.584C1049.61 52.192 1049.92 53.136 1049.92 54.416ZM1065.8 45.68H1064.39L1059.73 52.952V56.72H1062.35V59H1054.57V56.72H1057.07V52.928L1052.24 45.68H1050.8V43.4H1056.97V45.68H1055.34L1058.46 50.576H1058.6L1061.65 45.68H1059.92V43.4H1065.8V45.68Z" fill="black"/>
<rect x="908" y="163" width="267" height="59" fill="#C4C4C4"/>
<path d="M979.866 186.936H978.546L974.37 201H972.954L968.85 188.52H968.754L964.77 201H963.354L958.89 186.936H957.57V185.4H962.97V186.936H960.762L964.05 198.144H964.146L967.746 186.936H966.186V185.4H971.562V186.936H970.002L973.65 198.216H973.746L976.77 186.936H974.514V185.4H979.866V186.936ZM989.315 197.928C989.171 198.84 988.715 199.624 987.947 200.28C987.179 200.92 986.139 201.24 984.827 201.24C983.323 201.24 982.107 200.768 981.179 199.824C980.251 198.88 979.787 197.544 979.787 195.816C979.787 194.152 980.227 192.784 981.107 191.712C981.987 190.64 983.179 190.104 984.683 190.104C986.155 190.104 987.275 190.568 988.043 191.496C988.811 192.424 989.203 193.52 989.219 194.784C989.219 195.2 989.171 195.624 989.075 196.056H981.563C981.659 198.552 982.787 199.8 984.947 199.8C985.795 199.8 986.459 199.6 986.939 199.2C987.419 198.8 987.739 198.272 987.899 197.616L989.315 197.928ZM987.443 194.808C987.523 194.008 987.331 193.256 986.867 192.552C986.419 191.848 985.675 191.496 984.635 191.496C983.643 191.496 982.915 191.824 982.451 192.48C981.987 193.136 981.699 193.912 981.587 194.808H987.443ZM1002.05 195.384C1002.05 196.328 1001.89 197.248 1001.57 198.144C1001.25 199.04 1000.74 199.784 1000.04 200.376C999.332 200.952 998.42 201.24 997.3 201.24C995.508 201.24 994.26 200.568 993.556 199.224L993.316 201H991.636C991.7 200.536 991.772 200.032 991.852 199.488C991.932 198.944 991.972 198.408 991.972 197.88V185.856H990.124V184.488H993.652V192.528C993.972 191.872 994.428 191.304 995.02 190.824C995.628 190.344 996.444 190.104 997.468 190.104C998.796 190.104 999.892 190.56 1000.76 191.472C1001.62 192.384 1002.05 193.688 1002.05 195.384ZM1000.28 195.552C1000.28 194.224 999.964 193.224 999.34 192.552C998.716 191.88 997.956 191.544 997.06 191.544C996.036 191.544 995.22 191.92 994.612 192.672C994.004 193.424 993.684 194.192 993.652 194.976V196.584C993.652 197.48 993.964 198.24 994.588 198.864C995.228 199.488 996.012 199.8 996.94 199.8C998.108 199.8 998.956 199.368 999.484 198.504C1000.01 197.64 1000.28 196.656 1000.28 195.552ZM1018.9 194.52H1017.68V201H1016.34L1016.12 198.84C1015.66 199.528 1014.99 200.104 1014.13 200.568C1013.28 201.016 1012.28 201.24 1011.13 201.24C1008.98 201.24 1007.25 200.472 1005.92 198.936C1004.59 197.4 1003.93 195.512 1003.93 193.272C1003.93 191.768 1004.25 190.408 1004.89 189.192C1005.54 187.96 1006.44 186.984 1007.58 186.264C1008.73 185.528 1010.05 185.16 1011.54 185.16C1012.78 185.16 1013.87 185.336 1014.8 185.688C1015.74 186.024 1016.51 186.456 1017.1 186.984L1017.54 189.912L1016.05 190.08L1015.57 187.872C1015.14 187.584 1014.61 187.328 1013.98 187.104C1013.38 186.864 1012.59 186.744 1011.63 186.744C1009.89 186.744 1008.48 187.344 1007.41 188.544C1006.34 189.744 1005.8 191.296 1005.8 193.2C1005.8 195.136 1006.31 196.696 1007.34 197.88C1008.36 199.064 1009.73 199.656 1011.44 199.656C1012.86 199.656 1013.97 199.272 1014.75 198.504C1015.54 197.72 1015.93 196.856 1015.93 195.912V194.52H1012.21V192.96H1018.9V194.52ZM1031.83 201H1020.57V199.464H1022.54V186.936H1020.57V185.4H1026.91V186.936H1024.29V199.464H1030.27L1030.75 195.888L1032.31 196.008L1031.83 201ZM1040.22 184.488L1035.06 201H1033.41L1038.57 184.488H1040.22ZM1056.31 194.52H1055.09V201H1053.74L1053.53 198.84C1053.06 199.528 1052.4 200.104 1051.54 200.568C1050.69 201.016 1049.69 201.24 1048.54 201.24C1046.39 201.24 1044.66 200.472 1043.33 198.936C1042 197.4 1041.34 195.512 1041.34 193.272C1041.34 191.768 1041.66 190.408 1042.3 189.192C1042.95 187.96 1043.85 186.984 1044.98 186.264C1046.14 185.528 1047.46 185.16 1048.94 185.16C1050.19 185.16 1051.28 185.336 1052.21 185.688C1053.15 186.024 1053.92 186.456 1054.51 186.984L1054.94 189.912L1053.46 190.08L1052.98 187.872C1052.54 187.584 1052.02 187.328 1051.39 187.104C1050.78 186.864 1050 186.744 1049.04 186.744C1047.3 186.744 1045.89 187.344 1044.82 188.544C1043.74 189.744 1043.21 191.296 1043.21 193.2C1043.21 195.136 1043.72 196.696 1044.74 197.88C1045.77 199.064 1047.14 199.656 1048.85 199.656C1050.27 199.656 1051.38 199.272 1052.16 198.504C1052.94 197.72 1053.34 196.856 1053.34 195.912V194.52H1049.62V192.96H1056.31V194.52ZM1070.02 190.176C1070.02 191.808 1069.53 193.056 1068.54 193.92C1067.54 194.768 1066.28 195.192 1064.74 195.192H1061.7V199.464H1064.38V201H1057.98V199.464H1059.94V186.936H1057.98V185.4H1064.6C1066.54 185.4 1067.92 185.872 1068.75 186.816C1069.6 187.76 1070.02 188.88 1070.02 190.176ZM1068.15 190.224C1068.15 189.216 1067.86 188.416 1067.26 187.824C1066.67 187.232 1065.74 186.936 1064.46 186.936H1061.7V193.656H1064.53C1066.94 193.656 1068.15 192.512 1068.15 190.224ZM1087.07 186.936H1085.56V194.592C1085.56 195.696 1085.37 196.76 1084.98 197.784C1084.61 198.792 1083.97 199.624 1083.06 200.28C1082.17 200.92 1080.92 201.24 1079.32 201.24C1077 201.24 1075.4 200.6 1074.52 199.32C1073.65 198.024 1073.22 196.536 1073.22 194.856V186.936H1071.61V185.4H1077.16V186.936H1075V194.808C1075 196.344 1075.36 197.536 1076.08 198.384C1076.8 199.232 1077.91 199.656 1079.41 199.656C1082.41 199.656 1083.9 197.968 1083.9 194.592V186.936H1081.67V185.4H1087.07V186.936ZM1094.9 184.488L1089.74 201H1088.09L1093.25 184.488H1094.9ZM1110.45 201H1105.01V199.464H1106.93L1102.94 194.136L1099.13 199.464H1100.97V201H1095.6V199.464H1097.21L1102.05 192.936L1097.42 186.936H1095.86V185.4H1101.19V186.936H1099.44L1103.06 191.736L1106.52 186.936H1104.93V185.4H1110.21V186.936H1108.49L1103.95 192.912L1108.97 199.464H1110.45V201ZM1125.19 201H1122.07L1118.71 194.472H1115.37V199.464H1117.46V201H1111.63V199.464H1113.59V186.936H1111.63V185.4H1118.37C1120.31 185.4 1121.69 185.824 1122.52 186.672C1123.35 187.504 1123.77 188.552 1123.77 189.816C1123.77 190.824 1123.49 191.728 1122.93 192.528C1122.37 193.312 1121.54 193.848 1120.43 194.136L1123.22 199.464H1125.19V201ZM1121.92 189.888C1121.92 188.864 1121.63 188.12 1121.03 187.656C1120.44 187.176 1119.48 186.936 1118.15 186.936H1115.37V193.008H1118.2C1119.53 193.008 1120.48 192.736 1121.06 192.192C1121.63 191.632 1121.92 190.864 1121.92 189.888Z" fill="black"/>
<rect x="908" y="86" width="267" height="71" fill="#C4C4C4"/>
<path d="M989.582 110.312C990.158 109.976 990.838 109.72 991.622 109.544C992.422 109.352 993.174 109.256 993.878 109.256C995.446 109.256 996.558 109.656 997.214 110.456C997.886 111.256 998.222 112.096 998.222 112.976C998.222 114.08 997.814 115.104 996.998 116.048C996.198 116.976 995.246 117.816 994.142 118.568C993.054 119.304 992.07 119.936 991.19 120.464H997.43L997.646 118.544L999.11 118.664L998.846 122H989.102L988.91 120.632C991.182 119.096 992.99 117.768 994.334 116.648C995.678 115.512 996.35 114.352 996.35 113.168C996.35 111.568 995.398 110.768 993.494 110.768C993.158 110.768 992.75 110.816 992.27 110.912C991.79 111.008 991.35 111.144 990.95 111.32L990.566 113.12L989.174 112.952L989.582 110.312ZM1016.07 114.176C1016.07 116.464 1015.37 118.344 1013.96 119.816C1012.57 121.272 1010.64 122 1008.17 122H1001.12V120.488H1003.09V107.912H1001.12V106.4H1008.1C1010.65 106.4 1012.61 107.136 1013.98 108.608C1015.37 110.064 1016.07 111.92 1016.07 114.176ZM1014.2 114.2C1014.2 112.312 1013.67 110.792 1012.61 109.64C1011.57 108.488 1010.06 107.912 1008.08 107.912H1004.84V120.488H1008.08C1010.06 120.488 1011.57 119.928 1012.61 118.808C1013.67 117.672 1014.2 116.136 1014.2 114.2ZM1035.09 122H1023.48V120.464H1025.44V107.936H1023.48V106.4H1034.88L1035.36 110.816L1033.82 110.984L1033.34 107.936H1027.2V113.312H1034.56V114.848H1027.2V120.464H1033.56L1034.04 117.416L1035.55 117.584L1035.09 122ZM1050.11 122H1044.71V120.632H1046.56V115.664C1046.56 114.512 1046.33 113.704 1045.87 113.24C1045.4 112.76 1044.81 112.52 1044.09 112.52C1043.13 112.52 1042.35 112.84 1041.76 113.48C1041.19 114.104 1040.88 114.824 1040.85 115.64V120.632H1042.72V122H1037.3V120.632H1039.17V112.688H1037.25V111.32H1040.85V113.216C1041.62 111.808 1042.87 111.104 1044.59 111.104C1045.63 111.104 1046.51 111.424 1047.21 112.064C1047.91 112.704 1048.27 113.736 1048.27 115.16V120.632H1050.11V122ZM1063.08 112.688H1061.35V121.856C1061.35 123.536 1060.89 124.872 1059.96 125.864C1059.05 126.856 1057.76 127.352 1056.1 127.352C1054.98 127.352 1053.97 127.096 1053.07 126.584C1052.19 126.072 1051.61 125.28 1051.32 124.208L1052.66 123.536C1052.94 124.368 1053.41 124.968 1054.08 125.336C1054.75 125.72 1055.45 125.912 1056.17 125.912C1057.19 125.912 1058.02 125.552 1058.66 124.832C1059.32 124.128 1059.65 123.112 1059.65 121.784V119.816C1059.33 120.44 1058.86 120.984 1058.26 121.448C1057.65 121.912 1056.84 122.144 1055.83 122.144C1054.57 122.144 1053.49 121.696 1052.59 120.8C1051.7 119.904 1051.25 118.616 1051.25 116.936C1051.25 115.512 1051.63 114.184 1052.4 112.952C1053.17 111.72 1054.38 111.104 1056.02 111.104C1057.72 111.104 1058.93 111.736 1059.65 113V111.32H1063.08V112.688ZM1059.65 117.392V115.544C1059.65 114.648 1059.34 113.928 1058.71 113.384C1058.1 112.824 1057.36 112.544 1056.48 112.544C1055.28 112.544 1054.41 112.976 1053.86 113.84C1053.34 114.704 1053.07 115.696 1053.07 116.816C1053.07 118.128 1053.37 119.104 1053.96 119.744C1054.57 120.384 1055.31 120.704 1056.19 120.704C1057.22 120.704 1058.04 120.352 1058.66 119.648C1059.29 118.944 1059.62 118.192 1059.65 117.392ZM1066 108.56V106.376H1067.83V108.56H1066ZM1069.72 122H1064.3V120.632H1066.17V112.688H1064.25V111.32H1067.85V120.632H1069.72V122ZM1083.75 122H1078.35V120.632H1080.19V115.664C1080.19 114.512 1079.96 113.704 1079.5 113.24C1079.03 112.76 1078.44 112.52 1077.72 112.52C1076.76 112.52 1075.99 112.84 1075.39 113.48C1074.82 114.104 1074.51 114.824 1074.48 115.64V120.632H1076.35V122H1070.93V120.632H1072.8V112.688H1070.88V111.32H1074.48V113.216C1075.25 111.808 1076.5 111.104 1078.23 111.104C1079.27 111.104 1080.14 111.424 1080.84 112.064C1081.55 112.704 1081.9 113.736 1081.9 115.16V120.632H1083.75V122ZM1094.41 118.928C1094.26 119.84 1093.81 120.624 1093.04 121.28C1092.27 121.92 1091.23 122.24 1089.92 122.24C1088.42 122.24 1087.2 121.768 1086.27 120.824C1085.34 119.88 1084.88 118.544 1084.88 116.816C1084.88 115.152 1085.32 113.784 1086.2 112.712C1087.08 111.64 1088.27 111.104 1089.78 111.104C1091.25 111.104 1092.37 111.568 1093.14 112.496C1093.9 113.424 1094.3 114.52 1094.31 115.784C1094.31 116.2 1094.26 116.624 1094.17 117.056H1086.66C1086.75 119.552 1087.88 120.8 1090.04 120.8C1090.89 120.8 1091.55 120.6 1092.03 120.2C1092.51 119.8 1092.83 119.272 1092.99 118.616L1094.41 118.928ZM1092.54 115.808C1092.62 115.008 1092.42 114.256 1091.96 113.552C1091.51 112.848 1090.77 112.496 1089.73 112.496C1088.74 112.496 1088.01 112.824 1087.54 113.48C1087.08 114.136 1086.79 114.912 1086.68 115.808H1092.54ZM930.921 131.076H932.127C930.135 133.608 929.139 136.296 929.139 139.14C929.139 140.532 929.385 141.93 929.877 143.334C930.381 144.738 931.131 146.058 932.127 147.294H930.885C929.889 145.974 929.163 144.63 928.707 143.262C928.251 141.882 928.023 140.508 928.023 139.14C928.023 137.748 928.257 136.374 928.725 135.018C929.205 133.662 929.937 132.348 930.921 131.076ZM942.053 135.882C942.053 137.106 941.681 138.042 940.937 138.69C940.193 139.326 939.245 139.644 938.093 139.644H935.807V142.848H937.823V144H933.017V142.848H934.493V133.452H933.017V132.3H937.985C939.437 132.3 940.475 132.654 941.099 133.362C941.735 134.07 942.053 134.91 942.053 135.882ZM940.649 135.918C940.649 135.162 940.427 134.562 939.983 134.118C939.539 133.674 938.837 133.452 937.877 133.452H935.807V138.492H937.931C939.743 138.492 940.649 137.634 940.649 135.918ZM952.515 144H948.447V142.974H949.851V139.248C949.851 138.384 949.671 137.778 949.311 137.43C948.963 137.07 948.513 136.89 947.961 136.89C947.265 136.89 946.695 137.13 946.251 137.61C945.819 138.078 945.591 138.606 945.567 139.194V142.974H946.953V144H942.903V142.974H944.289V132.642H942.903V131.616H945.567V137.43C946.155 136.362 947.091 135.828 948.375 135.828C949.155 135.828 949.809 136.068 950.337 136.548C950.865 137.028 951.129 137.802 951.129 138.87V142.974H952.515V144ZM954.127 136.602C954.547 136.326 954.991 136.128 955.459 136.008C955.927 135.888 956.425 135.828 956.953 135.828C958.861 135.828 959.815 136.722 959.815 138.51V142.326C959.815 142.902 960.043 143.19 960.499 143.19C960.703 143.19 960.883 143.154 961.039 143.082L961.057 143.91C960.733 144.09 960.385 144.18 960.013 144.18C959.065 144.18 958.579 143.64 958.555 142.56V142.524C958.303 142.956 957.943 143.34 957.475 143.676C957.019 144.012 956.467 144.18 955.819 144.18C955.291 144.18 954.751 144.018 954.199 143.694C953.659 143.37 953.389 142.782 953.389 141.93C953.389 140.922 953.785 140.262 954.577 139.95C955.381 139.626 956.233 139.464 957.133 139.464C957.373 139.464 957.613 139.47 957.853 139.482C958.105 139.494 958.339 139.512 958.555 139.536V138.816C958.555 138.24 958.429 137.772 958.177 137.412C957.937 137.052 957.457 136.872 956.737 136.872C956.149 136.872 955.633 136.98 955.189 137.196L954.883 138.582L953.839 138.456L954.127 136.602ZM958.555 140.994V140.382C958.327 140.37 958.087 140.352 957.835 140.328C957.583 140.304 957.325 140.292 957.061 140.292C956.461 140.292 955.915 140.388 955.423 140.58C954.943 140.76 954.703 141.162 954.703 141.786C954.703 142.302 954.865 142.656 955.189 142.848C955.513 143.04 955.849 143.136 956.197 143.136C956.749 143.136 957.265 142.944 957.745 142.56C958.237 142.176 958.507 141.654 958.555 140.994ZM968.552 141.678C968.552 142.458 968.222 143.07 967.562 143.514C966.914 143.958 966.11 144.18 965.15 144.18C964.586 144.18 964.022 144.108 963.458 143.964C962.906 143.808 962.456 143.616 962.108 143.388L962.36 141.57L963.368 141.678L963.314 142.74C963.866 143.004 964.46 143.136 965.096 143.136C965.66 143.136 966.158 143.028 966.59 142.812C967.034 142.584 967.256 142.242 967.256 141.786C967.256 141.342 967.088 141.03 966.752 140.85C966.416 140.67 965.996 140.538 965.492 140.454C965 140.37 964.502 140.268 963.998 140.148C963.494 140.028 963.074 139.824 962.738 139.536C962.402 139.236 962.234 138.774 962.234 138.15C962.234 137.298 962.546 136.698 963.17 136.35C963.794 136.002 964.472 135.828 965.204 135.828C965.756 135.828 966.272 135.9 966.752 136.044C967.244 136.188 967.658 136.362 967.994 136.566L968.192 138.438L967.148 138.564L966.95 137.268C966.446 137.004 965.9 136.872 965.312 136.872C964.808 136.872 964.394 136.968 964.07 137.16C963.746 137.352 963.584 137.652 963.584 138.06C963.584 138.48 963.752 138.78 964.088 138.96C964.424 139.128 964.838 139.254 965.33 139.338C965.822 139.41 966.314 139.506 966.806 139.626C967.298 139.746 967.712 139.962 968.048 140.274C968.384 140.574 968.552 141.042 968.552 141.678ZM977.093 141.696C976.985 142.38 976.643 142.968 976.067 143.46C975.491 143.94 974.711 144.18 973.727 144.18C972.599 144.18 971.687 143.826 970.991 143.118C970.295 142.41 969.947 141.408 969.947 140.112C969.947 138.864 970.277 137.838 970.937 137.034C971.597 136.23 972.491 135.828 973.619 135.828C974.723 135.828 975.563 136.176 976.139 136.872C976.715 137.568 977.009 138.39 977.021 139.338C977.021 139.65 976.985 139.968 976.913 140.292H971.279C971.351 142.164 972.197 143.1 973.817 143.1C974.453 143.1 974.951 142.95 975.311 142.65C975.671 142.35 975.911 141.954 976.031 141.462L977.093 141.696ZM975.689 139.356C975.749 138.756 975.605 138.192 975.257 137.664C974.921 137.136 974.363 136.872 973.583 136.872C972.839 136.872 972.293 137.118 971.945 137.61C971.597 138.102 971.381 138.684 971.297 139.356H975.689ZM982.83 135.846C983.406 135.846 983.862 135.984 984.198 136.26L984.504 138.276L983.478 138.402L983.172 137.034C982.968 136.962 982.764 136.926 982.56 136.926C982.092 136.926 981.702 137.124 981.39 137.52C981.078 137.904 980.922 138.408 980.922 139.032V142.974H982.776V144H978.258V142.974H979.662V137.016H978.222V135.99H980.85V137.43C981.006 136.986 981.258 136.614 981.606 136.314C981.966 136.002 982.374 135.846 982.83 135.846ZM985.111 145.836L986.047 141.948H987.307L986.353 145.836H985.111ZM1002.17 135.882C1002.17 137.106 1001.8 138.042 1001.05 138.69C1000.31 139.326 999.362 139.644 998.21 139.644H995.924V142.848H997.94V144H993.134V142.848H994.61V133.452H993.134V132.3H998.102C999.554 132.3 1000.59 132.654 1001.22 133.362C1001.85 134.07 1002.17 134.91 1002.17 135.882ZM1000.77 135.918C1000.77 135.162 1000.54 134.562 1000.1 134.118C999.656 133.674 998.954 133.452 997.994 133.452H995.924V138.492H998.048C999.86 138.492 1000.77 137.634 1000.77 135.918ZM1004.6 133.92V132.282H1005.97V133.92H1004.6ZM1007.39 144H1003.33V142.974H1004.73V137.016H1003.29V135.99H1005.99V142.974H1007.39V144ZM1016.72 144H1013.19V142.974H1014.24L1012.37 140.67L1010.48 142.974H1011.43V144H1008.1V142.974H1009.2L1011.72 140.004L1009.18 137.016H1008.1V135.99H1011.75V137.016H1010.67L1012.47 139.284L1014.33 137.016H1013.37V135.99H1016.58V137.016H1015.64L1013.14 139.932L1015.71 142.974H1016.72V144ZM1018.89 133.92V132.282H1020.26V133.92H1018.89ZM1021.68 144H1017.62V142.974H1019.02V137.016H1017.58V135.99H1020.28V142.974H1021.68V144ZM1022.48 145.836L1023.42 141.948H1024.68L1023.72 145.836H1022.48ZM1038.97 139.77C1038.97 140.478 1038.84 141.174 1038.59 141.858C1038.35 142.53 1037.96 143.088 1037.42 143.532C1036.89 143.964 1036.19 144.18 1035.31 144.18C1034.1 144.18 1033.22 143.73 1032.67 142.83V146.808H1034.52V147.834H1029.98V146.808H1031.41V137.016H1029.97V135.99H1032.67V137.664C1032.91 137.184 1033.25 136.758 1033.71 136.386C1034.17 136.014 1034.77 135.828 1035.51 135.828C1036.54 135.828 1037.38 136.176 1038.01 136.872C1038.65 137.568 1038.97 138.534 1038.97 139.77ZM1037.63 139.878C1037.63 138.918 1037.4 138.186 1036.93 137.682C1036.46 137.166 1035.88 136.908 1035.19 136.908C1034.47 136.908 1033.87 137.196 1033.4 137.772C1032.94 138.336 1032.69 138.924 1032.67 139.536V140.724C1032.67 141.396 1032.9 141.96 1033.37 142.416C1033.84 142.872 1034.4 143.1 1035.06 143.1C1035.96 143.1 1036.61 142.776 1037.02 142.128C1037.43 141.48 1037.63 140.73 1037.63 139.878ZM1044.76 135.846C1045.33 135.846 1045.79 135.984 1046.13 136.26L1046.43 138.276L1045.41 138.402L1045.1 137.034C1044.9 136.962 1044.69 136.926 1044.49 136.926C1044.02 136.926 1043.63 137.124 1043.32 137.52C1043.01 137.904 1042.85 138.408 1042.85 139.032V142.974H1044.7V144H1040.19V142.974H1041.59V137.016H1040.15V135.99H1042.78V137.43C1042.93 136.986 1043.19 136.614 1043.53 136.314C1043.89 136.002 1044.3 135.846 1044.76 135.846ZM1055.77 139.986C1055.77 141.198 1055.41 142.2 1054.69 142.992C1053.97 143.784 1052.99 144.18 1051.76 144.18C1050.55 144.18 1049.59 143.796 1048.9 143.028C1048.21 142.26 1047.87 141.27 1047.87 140.058C1047.87 138.894 1048.21 137.898 1048.88 137.07C1049.55 136.23 1050.53 135.81 1051.83 135.81C1053.14 135.81 1054.12 136.224 1054.78 137.052C1055.44 137.868 1055.77 138.846 1055.77 139.986ZM1054.44 139.968C1054.44 139.056 1054.21 138.318 1053.74 137.754C1053.28 137.178 1052.63 136.89 1051.79 136.89C1050.95 136.89 1050.31 137.184 1049.85 137.772C1049.41 138.36 1049.18 139.098 1049.18 139.986C1049.18 140.862 1049.41 141.6 1049.85 142.2C1050.29 142.8 1050.94 143.1 1051.79 143.1C1052.65 143.1 1053.3 142.806 1053.76 142.218C1054.21 141.618 1054.44 140.868 1054.44 139.968ZM1064.14 141.3C1064.03 141.996 1063.71 142.65 1063.18 143.262C1062.67 143.874 1061.86 144.18 1060.75 144.18C1059.65 144.18 1058.77 143.826 1058.11 143.118C1057.45 142.398 1057.12 141.396 1057.12 140.112C1057.12 139.008 1057.43 138.018 1058.05 137.142C1058.68 136.266 1059.61 135.828 1060.86 135.828C1061.39 135.828 1061.87 135.888 1062.32 136.008C1062.76 136.128 1063.19 136.344 1063.6 136.656L1063.9 138.582L1062.86 138.708L1062.55 137.358C1062.07 137.058 1061.5 136.908 1060.84 136.908C1059.99 136.908 1059.38 137.214 1059.01 137.826C1058.63 138.438 1058.45 139.176 1058.45 140.04C1058.45 141 1058.66 141.75 1059.08 142.29C1059.5 142.83 1060.1 143.1 1060.9 143.1C1062.1 143.1 1062.82 142.422 1063.06 141.066L1064.14 141.3ZM1072.58 141.696C1072.47 142.38 1072.13 142.968 1071.55 143.46C1070.98 143.94 1070.2 144.18 1069.21 144.18C1068.08 144.18 1067.17 143.826 1066.48 143.118C1065.78 142.41 1065.43 141.408 1065.43 140.112C1065.43 138.864 1065.76 137.838 1066.42 137.034C1067.08 136.23 1067.98 135.828 1069.1 135.828C1070.21 135.828 1071.05 136.176 1071.62 136.872C1072.2 137.568 1072.49 138.39 1072.51 139.338C1072.51 139.65 1072.47 139.968 1072.4 140.292H1066.76C1066.84 142.164 1067.68 143.1 1069.3 143.1C1069.94 143.1 1070.44 142.95 1070.8 142.65C1071.16 142.35 1071.4 141.954 1071.52 141.462L1072.58 141.696ZM1071.17 139.356C1071.23 138.756 1071.09 138.192 1070.74 137.664C1070.41 137.136 1069.85 136.872 1069.07 136.872C1068.32 136.872 1067.78 137.118 1067.43 137.61C1067.08 138.102 1066.87 138.684 1066.78 139.356H1071.17ZM1080.38 141.678C1080.38 142.458 1080.05 143.07 1079.39 143.514C1078.75 143.958 1077.94 144.18 1076.98 144.18C1076.42 144.18 1075.85 144.108 1075.29 143.964C1074.74 143.808 1074.29 143.616 1073.94 143.388L1074.19 141.57L1075.2 141.678L1075.15 142.74C1075.7 143.004 1076.29 143.136 1076.93 143.136C1077.49 143.136 1077.99 143.028 1078.42 142.812C1078.87 142.584 1079.09 142.242 1079.09 141.786C1079.09 141.342 1078.92 141.03 1078.58 140.85C1078.25 140.67 1077.83 140.538 1077.32 140.454C1076.83 140.37 1076.33 140.268 1075.83 140.148C1075.33 140.028 1074.91 139.824 1074.57 139.536C1074.23 139.236 1074.07 138.774 1074.07 138.15C1074.07 137.298 1074.38 136.698 1075 136.35C1075.63 136.002 1076.3 135.828 1077.04 135.828C1077.59 135.828 1078.1 135.9 1078.58 136.044C1079.08 136.188 1079.49 136.362 1079.83 136.566L1080.02 138.438L1078.98 138.564L1078.78 137.268C1078.28 137.004 1077.73 136.872 1077.14 136.872C1076.64 136.872 1076.23 136.968 1075.9 137.16C1075.58 137.352 1075.42 137.652 1075.42 138.06C1075.42 138.48 1075.58 138.78 1075.92 138.96C1076.26 139.128 1076.67 139.254 1077.16 139.338C1077.65 139.41 1078.15 139.506 1078.64 139.626C1079.13 139.746 1079.54 139.962 1079.88 140.274C1080.22 140.574 1080.38 141.042 1080.38 141.678ZM1088.28 141.678C1088.28 142.458 1087.95 143.07 1087.29 143.514C1086.64 143.958 1085.83 144.18 1084.87 144.18C1084.31 144.18 1083.75 144.108 1083.18 143.964C1082.63 143.808 1082.18 143.616 1081.83 143.388L1082.08 141.57L1083.09 141.678L1083.04 142.74C1083.59 143.004 1084.18 143.136 1084.82 143.136C1085.38 143.136 1085.88 143.028 1086.31 142.812C1086.76 142.584 1086.98 142.242 1086.98 141.786C1086.98 141.342 1086.81 141.03 1086.48 140.85C1086.14 140.67 1085.72 140.538 1085.22 140.454C1084.72 140.37 1084.23 140.268 1083.72 140.148C1083.22 140.028 1082.8 139.824 1082.46 139.536C1082.13 139.236 1081.96 138.774 1081.96 138.15C1081.96 137.298 1082.27 136.698 1082.89 136.35C1083.52 136.002 1084.2 135.828 1084.93 135.828C1085.48 135.828 1086 135.9 1086.48 136.044C1086.97 136.188 1087.38 136.362 1087.72 136.566L1087.92 138.438L1086.87 138.564L1086.67 137.268C1086.17 137.004 1085.62 136.872 1085.04 136.872C1084.53 136.872 1084.12 136.968 1083.79 137.16C1083.47 137.352 1083.31 137.652 1083.31 138.06C1083.31 138.48 1083.48 138.78 1083.81 138.96C1084.15 139.128 1084.56 139.254 1085.05 139.338C1085.55 139.41 1086.04 139.506 1086.53 139.626C1087.02 139.746 1087.44 139.962 1087.77 140.274C1088.11 140.574 1088.28 141.042 1088.28 141.678ZM1090.88 133.92V132.282H1092.25V133.92H1090.88ZM1093.67 144H1089.6V142.974H1091V137.016H1089.56V135.99H1092.26V142.974H1093.67V144ZM1104.18 144H1100.13V142.974H1101.52V139.248C1101.52 138.384 1101.35 137.778 1101 137.43C1100.65 137.07 1100.21 136.89 1099.67 136.89C1098.95 136.89 1098.36 137.13 1097.92 137.61C1097.49 138.078 1097.26 138.618 1097.24 139.23V142.974H1098.64V144H1094.57V142.974H1095.98V137.016H1094.54V135.99H1097.24V137.412C1097.81 136.356 1098.75 135.828 1100.04 135.828C1100.82 135.828 1101.48 136.068 1102.01 136.548C1102.53 137.028 1102.8 137.802 1102.8 138.87V142.974H1104.18V144ZM1113.91 137.016H1112.61V143.892C1112.61 145.152 1112.26 146.154 1111.57 146.898C1110.88 147.642 1109.92 148.014 1108.67 148.014C1107.83 148.014 1107.07 147.822 1106.4 147.438C1105.74 147.054 1105.3 146.46 1105.09 145.656L1106.1 145.152C1106.3 145.776 1106.65 146.226 1107.16 146.502C1107.66 146.79 1108.18 146.934 1108.72 146.934C1109.49 146.934 1110.12 146.664 1110.6 146.124C1111.09 145.596 1111.33 144.834 1111.33 143.838V142.362C1111.09 142.83 1110.75 143.238 1110.29 143.586C1109.83 143.934 1109.23 144.108 1108.47 144.108C1107.52 144.108 1106.71 143.772 1106.04 143.1C1105.37 142.428 1105.03 141.462 1105.03 140.202C1105.03 139.134 1105.32 138.138 1105.9 137.214C1106.47 136.29 1107.38 135.828 1108.62 135.828C1109.89 135.828 1110.79 136.302 1111.33 137.25V135.99H1113.91V137.016ZM1111.33 140.544V139.158C1111.33 138.486 1111.1 137.946 1110.63 137.538C1110.18 137.118 1109.62 136.908 1108.96 136.908C1108.06 136.908 1107.4 137.232 1107 137.88C1106.6 138.528 1106.4 139.272 1106.4 140.112C1106.4 141.096 1106.62 141.828 1107.07 142.308C1107.52 142.788 1108.08 143.028 1108.74 143.028C1109.51 143.028 1110.13 142.764 1110.6 142.236C1111.06 141.708 1111.31 141.144 1111.33 140.544ZM1114.36 145.836L1115.3 141.948H1116.56L1115.6 145.836H1114.36ZM1133.6 138.132C1133.6 139.848 1133.07 141.258 1132.02 142.362C1130.97 143.454 1129.53 144 1127.68 144H1122.39V142.866H1123.86V133.434H1122.39V132.3H1127.62C1129.53 132.3 1131 132.852 1132.03 133.956C1133.08 135.048 1133.6 136.44 1133.6 138.132ZM1132.2 138.15C1132.2 136.734 1131.8 135.594 1131.01 134.73C1130.23 133.866 1129.09 133.434 1127.61 133.434H1125.18V142.866H1127.61C1129.09 142.866 1130.23 142.446 1131.01 141.606C1131.8 140.754 1132.2 139.602 1132.2 138.15ZM1135.51 135.378C1135.85 135.15 1136.28 134.94 1136.82 134.748C1137.38 134.544 1137.95 134.442 1138.55 134.442C1139.5 134.442 1140.28 134.688 1140.89 135.18C1141.52 135.672 1141.83 136.38 1141.83 137.304C1141.83 137.892 1141.66 138.438 1141.32 138.942C1141 139.434 1140.42 139.812 1139.58 140.076V140.148C1140.65 140.328 1141.37 140.694 1141.76 141.246C1142.14 141.798 1142.33 142.416 1142.33 143.1C1142.33 144.144 1141.99 144.978 1141.31 145.602C1140.63 146.226 1139.71 146.538 1138.53 146.538C1137.43 146.538 1136.59 146.292 1136.01 145.8C1135.44 145.308 1135.08 144.708 1134.93 144L1135.96 143.64C1136.13 144.12 1136.4 144.534 1136.79 144.882C1137.17 145.23 1137.74 145.404 1138.5 145.404C1139.46 145.404 1140.1 145.158 1140.42 144.666C1140.76 144.174 1140.93 143.628 1140.93 143.028C1140.93 142.32 1140.68 141.768 1140.17 141.372C1139.67 140.976 1138.79 140.76 1137.53 140.724V139.752C1138.65 139.704 1139.42 139.44 1139.83 138.96C1140.24 138.468 1140.44 137.97 1140.44 137.466C1140.44 136.878 1140.25 136.416 1139.87 136.08C1139.49 135.744 1138.97 135.576 1138.3 135.576C1137.71 135.576 1137.14 135.726 1136.57 136.026L1136.25 137.484L1135.2 137.358L1135.51 135.378ZM1144.15 144V142.056H1145.9V144H1144.15ZM1147.95 144V142.056H1149.7V144H1147.95ZM1152.05 147.294H1150.85C1152.84 144.762 1153.84 142.074 1153.84 139.23C1153.84 137.838 1153.58 136.446 1153.08 135.054C1152.59 133.65 1151.84 132.324 1150.85 131.076H1152.09C1153.09 132.396 1153.81 133.746 1154.27 135.126C1154.72 136.494 1154.95 137.862 1154.95 139.23C1154.95 140.61 1154.71 141.978 1154.23 143.334C1153.76 144.69 1153.04 146.01 1152.05 147.294Z" fill="black"/>
</svg>
